<svg width="182" height="44" viewBox="0 0 182 44" fill="none" xmlns="http://www.w3.org/2000/svg">
<path fill-rule="evenodd" clip-rule="evenodd" d="M14.4371 12.2122V23.2564C14.4371 23.2564 7.83193 22.4939 7.83193 16.4359C7.83193 11.0787 14.4371 12.2122 14.4371 12.2122V12.2122ZM13.8947 24.3281C14.476 24.4312 14.4948 24.3898 14.4948 24.9458C14.4948 25.5022 14.2433 28.0572 14.2433 28.0572L10.2142 28.5726L10.1757 28.9435C10.1757 28.9435 11.1054 30.0152 12.3062 29.7677C14.7904 29.2562 17.96 29.239 20.49 29.7165L14.3669 31.6875L26.384 34.999L28.2812 27.2078L22.8819 28.9435L22.8436 28.5726L18.8145 28.0572C18.8145 28.0572 18.5627 25.5022 18.5627 24.9458C18.5627 24.3898 18.5818 24.4312 19.1632 24.3281C19.7442 24.2251 26.6397 23.4625 28.8091 18.2288L28.9881 17.7615L29.8466 20.7792L32.9599 7.99542L25.6356 5.97713L27.4893 12.4937C26.5593 11.889 25.5499 11.6222 25.1485 11.4907C24.1411 11.1611 18.6013 11.0167 18.6013 11.0167V8.00838C18.6013 8.00838 19.3013 7.65923 20.3258 7.44327C21.3501 7.22762 22.3068 7.1968 22.3068 7.1968L22.5968 6.40484C22.5968 6.40484 20.8475 6.31227 19.6588 6.52859C17.3184 6.95349 15.7395 6.95349 13.399 6.52859L12.9205 6.45989L19.5929 4.31192L7.57553 1L5.67829 8.79124L10.7386 7.16247L10.7507 7.19683C10.7507 7.19683 11.7078 7.22766 12.732 7.4433C13.7563 7.65923 14.4566 8.00841 14.4566 8.00841V11.0168C14.4566 11.0168 8.9168 11.1612 7.90938 11.4907C7.35275 11.6727 5.62951 12.114 4.56675 13.3558L1 28.004L8.32394 30.0223L5.58176 20.3828C8.4327 23.6859 13.4053 24.2412 13.8947 24.3282L13.8947 24.3281ZM18.6208 23.2564V12.2122C18.6208 12.2122 25.226 11.0787 25.226 16.4359C25.226 22.4939 18.6208 23.2564 18.6208 23.2564V23.2564Z" fill="#F5F5F5" stroke="#F5F5F5" stroke-width="0.377927" stroke-miterlimit="22.9256"/>
<path fill-rule="evenodd" clip-rule="evenodd" d="M34.9725 27.5663L36.6852 27.8066V29.0679L30.2109 29.0279C30.2109 29.0279 30.3802 27.8866 31.0766 27.7665C31.773 27.6464 32.4129 27.7465 32.9399 26.2449C33.4668 24.7433 37.6638 12.5502 37.6638 12.5502L36.1017 12.2299L36.0076 10.9285C36.0076 10.9285 37.118 11.2288 39.0942 11.2288C41.0704 11.2288 43.1595 10.8484 43.1595 10.8484L43.2159 12.2499L41.7479 12.5102L46.7919 27.5663H47.94V29.1678H40.5435L40.9575 27.7865L42.9337 27.5262L40.8258 21.1994H36.4595L34.9726 27.5663L34.9725 27.5663ZM38.8307 13.4312L36.7417 19.6178H40.487L38.8308 13.4312H38.8307Z" fill="#EF7F1A"/>
<path fill-rule="evenodd" clip-rule="evenodd" d="M48.3728 11.2888L48.8245 12.6102L50.4055 12.7103V27.5863H48.8812V29.1677H56.8609C56.8609 29.1677 62.206 28.9277 62.206 24.1425C62.206 19.3574 53.9061 17.6956 53.9061 17.6956V12.8506C53.9061 12.8506 57.5008 12.7904 58.6112 13.1908C59.7217 13.5912 60.3992 15.9137 60.3992 15.9137L61.7919 16.3942C61.7919 16.3942 61.5473 12.3099 61.7355 11.3889C61.9237 10.4679 62.0554 9.44678 62.0554 9.44678L60.6438 10.0675L60.3051 11.1286L48.3728 11.2888H48.3728ZM53.895 19.5327V27.6166C53.895 27.6166 58.772 27.3351 58.772 24.1578C58.772 20.9806 53.895 19.5327 53.895 19.5327Z" fill="#EF7F1A"/>
<path fill-rule="evenodd" clip-rule="evenodd" d="M62.9212 12.2499L62.5796 10.8933H70.0918C70.0918 10.8933 75.5875 10.6882 75.5875 15.5134C75.5875 20.3385 67.5322 21.9202 67.5322 21.9202V27.2459L68.8685 27.5863L69.0002 28.8476H62.7708L63.2223 27.4461H64.2574V12.3902L62.9211 12.2498L62.9212 12.2499ZM67.6263 12.4301V20.4987C67.6263 20.4987 71.8421 18.8968 71.8421 15.7737C71.8421 12.6505 67.6263 12.4301 67.6263 12.4301V12.4301Z" fill="#EF7F1A"/>
<path fill-rule="evenodd" clip-rule="evenodd" d="M74.4394 10.9288L74.7716 12.2481H76.6226V27.1342L74.6869 27.4005L74.2133 28.7877H82.137V27.5526L79.9732 27.3295V25.5374L88.0091 14.9531V27.1775L86.1688 27.3599L85.5246 28.6966H93.2834V27.4209L91.4266 27.279C91.4266 27.279 90.9831 24.6007 90.9831 19.7342C90.9831 14.8678 91.3234 12.334 91.3234 12.334H93.373V10.8489H85.6378L86.2588 12.1101L87.8398 12.3904L87.8774 12.7908L79.841 22.6814L79.9163 12.2302L81.7042 12.1701L82.2501 11.6896V10.7888L74.4395 10.9288L74.4394 10.9288Z" fill="#EF7F1A"/>
<path fill-rule="evenodd" clip-rule="evenodd" d="M94.1416 10.9287L94.4738 12.248H96.3248V27.1341L94.3891 27.4003L93.9155 28.7876H101.839V27.5524L99.4195 27.3294L99.3941 20.6015L100.337 19.678L110.123 29.6487L111.253 28.5075L102.934 17.2554L108.429 12.3702C108.429 12.3702 108.749 12.2901 109.465 12.17C110.18 12.0498 110.424 10.7632 110.424 10.7632H104.13V11.9074C104.13 11.9074 104.651 11.9176 104.765 11.9176C104.879 11.9176 105.418 12.4102 105.418 12.4102L99.3855 18.2993L99.3626 12.23L101.406 12.1699L101.952 11.6894V10.7886L94.1416 10.9286V10.9287Z" fill="#EF7F1A"/>
<path fill-rule="evenodd" clip-rule="evenodd" d="M116.367 27.5663L118.08 27.8066V29.0679L111.605 29.0279C111.605 29.0279 111.775 27.8866 112.471 27.7665C113.167 27.6464 113.807 27.7465 114.334 26.2449C114.861 24.7433 119.058 12.5502 119.058 12.5502L117.496 12.2299L117.402 10.9285C117.402 10.9285 118.512 11.2288 120.489 11.2288C122.465 11.2288 124.554 10.8484 124.554 10.8484L124.61 12.2499L123.142 12.5102L128.186 27.5663H129.334V29.1678H121.938L122.352 27.7865L124.328 27.5262L122.22 21.1994H117.854L116.367 27.5663L116.367 27.5663ZM120.225 13.4312L118.136 19.6178H121.881L120.225 13.4312H120.225Z" fill="#EF7F1A"/>
<path fill-rule="evenodd" clip-rule="evenodd" d="M130.072 10.9288L130.392 12.2481H132.178V27.1343L130.31 27.4005L129.854 28.7878H137.497V27.5526L135.033 27.3095L135.01 20.8863L143.098 19.9562L143.161 27.1775L141.386 27.3599L140.765 28.6966H148.249V27.4209L146.458 27.279C146.458 27.279 146.03 24.6007 146.03 19.7342C146.03 14.8678 146.358 12.334 146.358 12.334H148.335V10.8489H140.874L141.473 12.1101L142.998 12.3904L143.034 12.7908L143.083 18.3367H135.001L134.978 12.2102L137.079 12.1701L137.606 11.6896V10.7888L130.072 10.9288H130.072Z" fill="#EF7F1A"/>
<path fill-rule="evenodd" clip-rule="evenodd" d="M148.865 9.71948L148.827 15.1892L149.81 14.9479C149.81 14.9479 150.037 13.9424 150.641 13.4598C151.246 12.9772 153.779 12.7761 153.779 12.7761V27.1341L151.058 27.5863L150.701 28.9077H155.632H160.563L160.205 27.5863L157.484 27.1341V12.7761C157.484 12.7761 160.017 12.9772 160.622 13.4598C161.227 13.9424 161.453 14.9479 161.453 14.9479L162.436 15.1892L162.399 9.71948L161.089 9.98747L160.958 11.0086L155.632 11.1087L150.305 11.0086L150.174 9.98747L148.865 9.71948H148.865Z" fill="#EF7F1A"/>
<path fill-rule="evenodd" clip-rule="evenodd" d="M163.155 3.64652V14.626L164.819 13.2588L164.668 9.31731C164.668 9.31731 165.348 8.59339 165.991 8.59339C166.634 8.59339 167.427 8.83473 167.427 9.96081C167.427 11.087 167.427 27.0937 167.427 27.0937L164.29 27.4559L163.932 28.8756H174.119C174.119 28.8756 181 28.5015 181 22.9514C181 17.4012 171.246 15.3501 171.246 15.3501V8.26566L174.998 7.62497V6.38364H164.496L164.346 4.1212L163.155 3.64648L163.155 3.64652ZM171.208 16.9186V27.134C171.208 27.134 176.425 27.5363 176.425 22.7905C176.425 18.0448 171.208 16.9186 171.208 16.9186Z" fill="#EF7F1A"/>
<path fill-rule="evenodd" clip-rule="evenodd" d="M40.8259 21.1991L42.9335 27.5261L40.9577 27.7865L40.5432 29.168H47.94V27.5662H46.7916L41.7478 12.5099L43.2162 12.25L43.1594 10.8484C43.1594 10.8484 41.0701 11.2284 39.0943 11.2284C37.1179 11.2284 36.0073 10.9283 36.0073 10.9283L36.1019 12.2299L37.6638 12.5501L32.9399 26.2445C32.4129 27.7462 31.7731 27.6461 31.0765 27.7663C30.3804 27.8864 30.2107 29.0276 30.2107 29.0276L36.6851 29.0679V27.8065L34.9724 27.5662L36.4597 21.1991H40.8258L40.8259 21.1991ZM38.8306 13.4309L40.487 19.6175H36.7419L38.8306 13.4309V13.4309Z" fill="#F5F5F5" stroke="#F5F5F5" stroke-width="0.377927" stroke-miterlimit="22.9256"/>
<path fill-rule="evenodd" clip-rule="evenodd" d="M50.4055 12.7105V27.5864H48.881V29.168H56.861C56.861 29.168 62.2058 28.9277 62.2058 24.1427C62.2058 19.3577 53.9059 17.6956 53.9059 17.6956V12.8508C53.9059 12.8508 57.5008 12.7904 58.6114 13.1906C59.7215 13.5913 60.3992 15.914 60.3992 15.914L61.7919 16.394C61.7919 16.394 61.547 12.3099 61.7357 11.3888C61.9237 10.4678 62.0556 9.44678 62.0556 9.44678L60.644 10.0677L60.3051 11.1284L48.373 11.2888L48.8248 12.6099L50.4056 12.7105L50.4055 12.7105ZM53.8951 27.6168V19.5324C53.8951 19.5324 58.7719 20.9807 58.7719 24.1576C58.7719 27.3351 53.8951 27.6168 53.8951 27.6168Z" fill="#F5F5F5" stroke="#F5F5F5" stroke-width="0.377927" stroke-miterlimit="22.9256"/>
<path fill-rule="evenodd" clip-rule="evenodd" d="M64.2573 12.3906V27.4464H63.2224L62.7706 28.848H69.0001L68.8682 27.5867L67.5323 27.2464V21.9204C67.5323 21.9204 75.5874 20.3388 75.5874 15.5136C75.5874 10.6883 70.0918 10.8936 70.0918 10.8936H62.5798L62.9214 12.2504L64.2573 12.3907V12.3906ZM67.6264 20.4992V12.4303C67.6264 12.4303 71.8422 12.6505 71.8422 15.774C71.8422 18.8969 67.6264 20.4992 67.6264 20.4992V20.4992Z" fill="#F5F5F5" stroke="#F5F5F5" stroke-width="0.377927" stroke-miterlimit="22.9256"/>
<path fill-rule="evenodd" clip-rule="evenodd" d="M76.6224 12.2482V27.1344L74.6871 27.4006L74.2131 28.7878H82.1369V27.5523L79.973 27.3299V25.5373L88.0092 14.9532V27.1775L86.169 27.3598L85.5248 28.6964H93.2832V27.4207L91.4263 27.2793C91.4263 27.2793 90.9831 24.6008 90.9831 19.7341C90.9831 14.8681 91.3231 12.3339 91.3231 12.3339H93.3729V10.8489H85.6378L86.2587 12.1102L87.8395 12.3902L87.8774 12.7909L79.8411 22.6817L79.9163 12.2304L81.704 12.17L82.2498 11.6894V10.7891L74.4395 10.9287L74.7714 12.2482H76.6224L76.6224 12.2482Z" fill="#F5F5F5" stroke="#F5F5F5" stroke-width="0.377927" stroke-miterlimit="22.9256"/>
<path fill-rule="evenodd" clip-rule="evenodd" d="M96.3248 12.2482V27.1344L94.389 27.4005L93.9155 28.7878H101.839V27.5523L99.4193 27.3298L99.3939 20.6016L100.336 19.6783L110.124 29.649L111.253 28.5078L102.934 17.2556L108.429 12.3706C108.429 12.3706 108.749 12.2902 109.465 12.17C110.18 12.0498 110.425 10.7632 110.425 10.7632H104.13V11.9079L104.765 11.9176C104.879 11.9176 105.418 12.4104 105.418 12.4104L99.3852 18.2997L99.3625 12.2304L101.406 12.17L101.952 11.6894V10.7891L94.1415 10.9287L94.4738 12.2482H96.3248H96.3248Z" fill="#F5F5F5" stroke="#F5F5F5" stroke-width="0.377927" stroke-miterlimit="22.9256"/>
<path fill-rule="evenodd" clip-rule="evenodd" d="M122.22 21.1991L124.328 27.5261L122.352 27.7865L121.938 29.168H129.334V27.5662H128.186L123.142 12.5099L124.61 12.25L124.553 10.8484C124.553 10.8484 122.465 11.2284 120.488 11.2284C118.512 11.2284 117.402 10.9283 117.402 10.9283L117.496 12.2299L119.058 12.5501L114.334 26.2445C113.807 27.7462 113.167 27.6461 112.471 27.7663C111.775 27.8864 111.605 29.0276 111.605 29.0276L118.079 29.0679V27.8065L116.367 27.5662L117.854 21.1991H122.22L122.22 21.1991ZM120.225 13.4309L121.881 19.6175H118.136L120.225 13.4309H120.225Z" fill="#F5F5F5" stroke="#F5F5F5" stroke-width="0.377927" stroke-miterlimit="22.9256"/>
<path fill-rule="evenodd" clip-rule="evenodd" d="M132.178 12.2482V27.1344L130.31 27.4006L129.854 28.7879H137.497V27.5524L135.033 27.3098L135.01 20.8863L143.097 19.956L143.161 27.1775L141.386 27.3598L140.765 28.6964H148.249V27.4207L146.458 27.2793C146.458 27.2793 146.03 24.6008 146.03 19.7341C146.03 14.8681 146.358 12.3339 146.358 12.3339H148.335V10.8489H140.873L141.473 12.1102L142.998 12.3902L143.034 12.7909L143.083 18.3365H135.001L134.978 12.2103L137.08 12.17L137.606 11.6894V10.7891L130.072 10.9287L130.392 12.2482H132.178V12.2482Z" fill="#F5F5F5" stroke="#F5F5F5" stroke-width="0.377927" stroke-miterlimit="22.9256"/>
<path fill-rule="evenodd" clip-rule="evenodd" d="M153.78 12.7761V27.1339L151.058 27.5864L150.701 28.9075H155.632H160.562L160.205 27.5864L157.484 27.1339V12.7761C157.484 12.7761 160.017 12.9773 160.622 13.4596C161.227 13.9425 161.454 14.9475 161.454 14.9475L162.437 15.189L162.399 9.71924L161.089 9.98716L160.958 11.0082L155.632 11.1088L150.306 11.0082L150.174 9.98716L148.865 9.71924L148.827 15.189L149.81 14.9475C149.81 14.9475 150.037 13.9425 150.642 13.4596C151.247 12.9773 153.78 12.7761 153.78 12.7761V12.7761Z" fill="#F5F5F5" stroke="#F5F5F5" stroke-width="0.377927" stroke-miterlimit="22.9256"/>
<path fill-rule="evenodd" clip-rule="evenodd" d="M167.428 9.96081V27.0937L164.29 27.4559L163.932 28.8754H174.119C174.119 28.8754 181 28.5017 181 22.9515C181 17.4013 171.246 15.35 171.246 15.35V8.26534L174.998 7.6249V6.38368H164.496L164.345 4.12081L163.155 3.64648V14.6256L164.819 13.2584L164.668 9.31742C164.668 9.31742 165.348 8.59304 165.991 8.59304C166.634 8.59304 167.428 8.83449 167.428 9.96074L167.428 9.96081ZM171.208 27.134V16.9184C171.208 16.9184 176.426 18.0446 176.426 22.7905C176.426 27.5364 171.208 27.134 171.208 27.134Z" fill="#F5F5F5" stroke="#F5F5F5" stroke-width="0.377927" stroke-miterlimit="22.9256"/>
<path d="M24.2769 41.3654C23.9644 41.9606 23.4035 42.4653 22.3922 42.4653C21.3257 42.4653 20.2041 41.8183 20.2041 40.1814C20.2041 38.7841 21.0775 37.9883 22.4935 37.9883C23.7162 37.9883 23.8082 38.3182 24.038 39.0751L24.3506 39.0298C24.2494 38.6999 24.1759 38.3441 24.1116 37.9818C23.753 37.8782 23.1369 37.7554 22.4935 37.7554C20.6912 37.7554 19.542 38.6093 19.542 40.1879C19.542 42.2259 21.1233 42.7241 22.3187 42.7241C23.2565 42.7241 24.1116 42.3811 24.5989 41.4366L24.277 41.3654H24.2769ZM36.0026 38.0918H37.3175C37.8599 38.0918 37.915 38.1112 38.1174 38.8876H38.4208L38.2 37.8524H33.1709L32.9594 38.8876H33.2628C33.4467 38.1241 33.5109 38.0918 34.0534 38.0918H35.3683V41.9476C35.3683 42.407 35.3314 42.4394 34.4856 42.4394V42.627H36.8944V42.4394C36.0485 42.4394 36.0026 42.407 36.0026 41.9476V38.0918H36.0026ZM51.1852 42.627L51.5164 41.6113H51.1945C50.9371 42.3423 50.8451 42.3876 50.3027 42.3876H48.3902C48.1972 42.3876 48.1236 42.3488 48.1236 42.0966V40.2592H49.5763C49.9993 40.2592 50.0545 40.298 50.0545 40.9256H50.3762V39.3535H50.0545C50.0545 39.9616 49.9993 40.0133 49.5856 40.0133H48.1236V38.4089C48.1236 38.1306 48.1512 38.0918 48.473 38.0918H50.0359C50.5417 38.0918 50.6337 38.1048 50.8818 38.8488H51.2037L50.9095 37.8524H46.7445V38.04C47.425 38.04 47.4892 38.0659 47.4892 38.5318V41.9412C47.4892 42.4071 47.425 42.4395 46.7445 42.4395V42.6271H51.1853L51.1852 42.627ZM62.4973 39.7287L64.1615 38.3571C64.5016 38.0724 64.6211 38.04 65.0073 38.04V37.8524H63.3248V38.04C63.6282 38.04 63.7751 38.0659 63.7751 38.1436C63.7751 38.2211 63.6282 38.3571 63.3616 38.5835L61.348 40.2785H61.3204V38.5382C61.3204 38.0659 61.3572 38.04 62.0008 38.04V37.8524H59.9505V38.04C60.6309 38.04 60.6859 38.0659 60.6859 38.5317V41.9411C60.6859 42.407 60.6309 42.4394 59.9505 42.4394V42.627H62.0375V42.4394C61.3664 42.4394 61.3204 42.407 61.3204 41.9411V40.6991L62.0742 40.065L64.2443 42.627H65.4946V42.4394C64.9337 42.4394 64.796 42.4006 64.4005 41.9541L62.4973 39.7286L62.4973 39.7287ZM74.2873 40.0456C74.2873 40.1492 74.2782 41.6825 73.4598 42.213C73.3125 42.2971 73.1839 42.4006 73.1839 42.5429C73.1839 42.6788 73.3586 42.7241 73.5517 42.7241C74.2873 42.7241 74.8389 41.5143 74.8389 40.0392V38.5382C74.8297 38.163 74.8297 38.0918 75.3722 38.0918H76.9076C77.4042 38.0918 77.4592 38.1241 77.4592 38.59V41.9477C77.4592 42.4071 77.4042 42.4395 76.8249 42.4395V42.627H78.7924V42.4395C78.1396 42.4395 78.0937 42.4071 78.0937 41.9349V38.5447C78.0937 38.0659 78.1304 38.04 78.7924 38.04V37.8524H73.5424V38.04C74.1861 38.04 74.2872 38.0788 74.2872 38.5447V40.0456H74.2873ZM89.4976 42.7241C91.3364 42.7241 92.4949 41.896 92.4949 40.2397C92.4949 38.4541 91.1434 37.7554 89.4976 37.7554C88.0818 37.7554 86.5002 38.273 86.5002 40.2397C86.5002 41.7795 87.4933 42.7241 89.4976 42.7241ZM89.4884 37.9883C90.1227 37.9883 90.7296 38.163 91.1526 38.4929C91.5662 38.8423 91.8236 39.3921 91.8236 40.2397C91.8236 40.9773 91.5846 41.5789 91.1526 41.9736C90.7664 42.2907 90.132 42.4848 89.4977 42.4848C88.854 42.4848 88.2287 42.2907 87.8425 41.9736C87.4013 41.579 87.1715 40.9773 87.1715 40.2397C87.1715 39.3922 87.4196 38.8423 87.8333 38.4929C88.2656 38.1501 88.8449 37.9883 89.4884 37.9883H89.4884ZM101.159 38.59C101.159 38.1306 101.205 38.0918 101.738 38.0918H104.156C104.699 38.0918 104.726 38.1565 104.726 38.59V41.9412C104.726 42.4071 104.699 42.4395 104.064 42.4395V42.627H106.105V42.4395C105.397 42.4395 105.361 42.4006 105.361 41.9349V38.5382C105.361 38.0724 105.416 38.04 106.105 38.04V37.8524H99.789V38.04C100.469 38.04 100.524 38.0659 100.524 38.5382V41.9349C100.524 42.4071 100.488 42.4395 99.789 42.4395V42.627H101.83V42.4395C101.214 42.4395 101.159 42.4071 101.159 41.9412V38.59ZM117.546 41.0808L118.024 42.006C118.079 42.1225 118.116 42.2065 118.116 42.2713C118.116 42.4006 117.978 42.4395 117.583 42.4395V42.6271H119.339V42.4395C118.989 42.4395 118.87 42.3747 118.668 41.9865L116.424 37.7554H116.121L114.08 42.0772C113.933 42.3812 113.832 42.4395 113.473 42.4395V42.627H114.981V42.4395C114.595 42.4395 114.457 42.4071 114.457 42.2712C114.457 42.2 114.493 42.0966 114.558 41.9541L114.944 41.0808H117.546L117.546 41.0808ZM117.417 40.8349H115.054L116.148 38.4476H116.185L117.417 40.8349ZM129.768 39.7287L131.432 38.3571C131.773 38.0724 131.892 38.04 132.278 38.04V37.8524H130.596V38.04C130.899 38.04 131.046 38.0659 131.046 38.1436C131.046 38.2211 130.899 38.3571 130.632 38.5836L128.619 40.2786H128.591V38.5382C128.591 38.0659 128.628 38.04 129.272 38.04V37.8524H127.221V38.04C127.902 38.04 127.957 38.0659 127.957 38.5317V41.9412C127.957 42.4071 127.902 42.4395 127.221 42.4395V42.627H129.308V42.4395C128.637 42.4395 128.591 42.4071 128.591 41.9412V40.6991L129.345 40.065L131.515 42.627H132.765V42.4395C132.205 42.4395 132.067 42.4006 131.671 41.9541L129.768 39.7287L129.768 39.7287ZM145.364 42.6271L145.696 41.6113H145.374C145.116 42.3424 145.024 42.3877 144.482 42.3877H142.569C142.376 42.3877 142.303 42.3488 142.303 42.0966V40.2592H143.756C144.178 40.2592 144.234 40.298 144.234 40.9256H144.556V39.3535H144.234C144.234 39.9616 144.178 40.0133 143.765 40.0133H142.303V38.4089C142.303 38.1307 142.331 38.0918 142.652 38.0918H144.215C144.721 38.0918 144.813 38.1048 145.061 38.8488H145.383L145.089 37.8525H140.924V38.0401C141.604 38.0401 141.668 38.066 141.668 38.5318V41.9413C141.668 42.4071 141.604 42.4395 140.924 42.4395V42.6271H145.364V42.6271ZM157.09 38.0918H158.405C158.947 38.0918 159.003 38.1112 159.205 38.8876H159.508L159.288 37.8524H154.258L154.047 38.8876H154.35C154.534 38.1242 154.599 38.0918 155.141 38.0918H156.456V41.9477C156.456 42.4071 156.419 42.4395 155.573 42.4395V42.627H157.982V42.4395C157.136 42.4395 157.09 42.4071 157.09 41.9477V38.0918ZM167.795 40.0068V38.5447C167.795 38.0788 167.86 38.04 168.586 38.04V37.8524H166.425V38.04C167.097 38.04 167.161 38.0788 167.161 38.4994V41.9349C167.161 42.4071 167.106 42.4395 166.425 42.4395V42.627H169.119C171.013 42.627 171.326 41.7859 171.326 41.2749C171.326 40.6085 170.59 40.0068 168.669 40.0068H167.795V40.0068ZM172.567 41.9477C172.567 42.4071 172.53 42.4395 171.758 42.4395V42.627H174.011V42.4395C173.248 42.4395 173.202 42.4071 173.202 41.9477V38.5382C173.202 38.0659 173.248 38.04 174.011 38.04V37.8524H171.767V38.04C172.53 38.04 172.567 38.0659 172.567 38.5382V41.9477H172.567ZM167.795 40.2462H168.779C170.268 40.2462 170.664 40.7961 170.664 41.2684C170.664 42.0319 170.121 42.3876 169.073 42.3876H168.135C167.85 42.3876 167.795 42.3359 167.795 42.0578V40.2462V40.2462Z" fill="url(#paint0_linear_121_34)" stroke="#264796" stroke-width="0.189137" stroke-miterlimit="22.9256"/>
<path fill-rule="evenodd" clip-rule="evenodd" d="M60.6865 38.5319V41.9415C60.6865 42.4073 60.6314 42.4397 59.951 42.4397V42.6273H62.0381V42.4397C61.3669 42.4397 61.3209 42.4073 61.3209 41.9415V40.6993L62.0749 40.0652L64.2448 42.6272H65.4952V42.4396C64.9344 42.4396 64.7965 42.4008 64.4011 41.9544L62.4978 39.7288L64.162 38.3572C64.5023 38.0725 64.6218 38.0402 65.0079 38.0402V37.8525H63.3254V38.0402C63.6288 38.0402 63.7759 38.066 63.7759 38.1437C63.7759 38.2213 63.6288 38.3572 63.3622 38.5836L61.3486 40.2787H61.321V38.5383C61.321 38.066 61.3578 38.0402 62.0014 38.0402V37.8526H59.951V38.0402C60.6314 38.0402 60.6866 38.066 60.6866 38.5319H60.6865Z" fill="#F5F5F5" stroke="#FEFEFE" stroke-width="0.189137" stroke-miterlimit="22.9256"/>
<path fill-rule="evenodd" clip-rule="evenodd" d="M86.5012 40.2398C86.5012 41.7796 87.4942 42.7241 89.4985 42.7241C91.3374 42.7241 92.4959 41.896 92.4959 40.2398C92.4959 38.4541 91.1443 37.7554 89.4985 37.7554C88.0826 37.7554 86.5012 38.273 86.5012 40.2398V40.2398ZM87.1723 40.2398C87.1723 39.3922 87.4206 38.8423 87.8343 38.4929C88.2665 38.15 88.8457 37.9883 89.4893 37.9883C90.1238 37.9883 90.7306 38.1629 91.1535 38.4929C91.5673 38.8423 91.8247 39.3922 91.8247 40.2398C91.8247 40.9773 91.5857 41.579 91.1535 41.9737C90.7674 42.2907 90.1329 42.4848 89.4985 42.4848C88.8549 42.4848 88.2297 42.2907 87.8436 41.9737C87.4023 41.579 87.1724 40.9773 87.1724 40.2398H87.1723Z" fill="#F5F5F5" stroke="#FEFEFE" stroke-width="0.189137" stroke-miterlimit="22.9256"/>
<path fill-rule="evenodd" clip-rule="evenodd" d="M100.526 38.5383V41.935C100.526 42.4073 100.489 42.4396 99.7899 42.4396V42.6272H101.831V42.4396C101.215 42.4396 101.16 42.4073 101.16 41.9414V38.59C101.16 38.1307 101.206 38.0919 101.739 38.0919H104.157C104.7 38.0919 104.727 38.1566 104.727 38.59V41.9414C104.727 42.4073 104.7 42.4396 104.065 42.4396V42.6272H106.106V42.4396C105.399 42.4396 105.362 42.4008 105.362 41.935V40.3936V38.5383C105.362 38.0725 105.417 38.0402 106.106 38.0402V37.8525H99.7899V38.0402C100.47 38.0402 100.525 38.066 100.525 38.5383L100.526 38.5383Z" fill="#F5F5F5" stroke="#FEFEFE" stroke-width="0.189137" stroke-miterlimit="22.9256"/>
<path fill-rule="evenodd" clip-rule="evenodd" d="M116.122 37.7554L114.081 42.0772C113.934 42.3813 113.833 42.4395 113.474 42.4395V42.6271H114.982V42.4395C114.596 42.4395 114.458 42.4072 114.458 42.2713C114.458 42.2001 114.495 42.0966 114.559 41.9543L114.945 41.0808H117.547L118.025 42.006C118.081 42.1225 118.117 42.2066 118.117 42.2713C118.117 42.4007 117.98 42.4395 117.584 42.4395V42.6271H119.34V42.4395C118.991 42.4395 118.871 42.3748 118.669 41.9866L116.426 37.7554H116.122V37.7554ZM115.056 40.835L116.15 38.4477H116.187L117.419 40.835H115.056Z" fill="#F5F5F5" stroke="#FEFEFE" stroke-width="0.189137" stroke-miterlimit="22.9256"/>
<path fill-rule="evenodd" clip-rule="evenodd" d="M127.958 38.5319V41.9415C127.958 42.4073 127.903 42.4397 127.223 42.4397V42.6273H129.31V42.4397C128.639 42.4397 128.593 42.4073 128.593 41.9415V40.6993L129.347 40.0652L131.517 42.6272H132.767V42.4396C132.206 42.4396 132.068 42.4008 131.673 41.9544L129.77 39.7288L131.434 38.3572C131.774 38.0725 131.894 38.0402 132.28 38.0402V37.8525H130.597V38.0402C130.901 38.0402 131.048 38.066 131.048 38.1437C131.048 38.2213 130.901 38.3572 130.634 38.5836L128.62 40.2787H128.593V38.5383C128.593 38.066 128.629 38.0402 129.273 38.0402V37.8526H127.223V38.0402C127.903 38.0402 127.958 38.066 127.958 38.5319H127.958Z" fill="#F5F5F5" stroke="#FEFEFE" stroke-width="0.189137" stroke-miterlimit="22.9256"/>
<path fill-rule="evenodd" clip-rule="evenodd" d="M141.67 38.5318V41.9414C141.67 42.4072 141.606 42.4396 140.925 42.4396V42.6272H145.366L145.697 41.6114H145.375C145.118 42.3425 145.026 42.3878 144.483 42.3878H142.571C142.378 42.3878 142.304 42.349 142.304 42.0967V40.2593H143.757C144.18 40.2593 144.235 40.2981 144.235 40.9257H144.557V39.3535H144.235C144.235 39.9617 144.18 40.0135 143.766 40.0135H142.304V38.4089C142.304 38.1307 142.332 38.0919 142.654 38.0919H144.217C144.723 38.0919 144.815 38.1049 145.063 38.8489H145.385L145.09 37.8525H140.925V38.0402C141.606 38.0402 141.67 38.066 141.67 38.5318V38.5318Z" fill="#F5F5F5" stroke="#FEFEFE" stroke-width="0.189137" stroke-miterlimit="22.9256"/>
<path fill-rule="evenodd" clip-rule="evenodd" d="M48.1241 42.0967V40.2593H49.5768C49.9997 40.2593 50.0549 40.2981 50.0549 40.9257H50.3767V39.3535H50.0549C50.0549 39.9617 49.9997 40.0135 49.586 40.0135H48.1241V38.4089C48.1241 38.1307 48.1516 38.0919 48.4735 38.0919H50.0365C50.5422 38.0919 50.6342 38.1049 50.8824 38.8489H51.2042L50.91 37.8525H46.7449V38.0402C47.4253 38.0402 47.4897 38.066 47.4897 38.5318V41.9414C47.4897 42.4073 47.4253 42.4396 46.7449 42.4396V42.6272H51.1858L51.5168 41.6115H51.195C50.9376 42.3426 50.8456 42.3878 50.3031 42.3878H48.3907C48.1976 42.3878 48.1241 42.3491 48.1241 42.0967V42.0967Z" fill="#F5F5F5" stroke="#FEFEFE" stroke-width="0.189137" stroke-miterlimit="22.9256"/>
<path fill-rule="evenodd" clip-rule="evenodd" d="M36.003 41.9479V38.0919H37.3177C37.8602 38.0919 37.9154 38.1113 38.1177 38.8877H38.4211L38.2004 37.8525H33.171L32.9595 38.8877H33.263C33.4469 38.1242 33.5112 38.0919 34.0537 38.0919H35.3685V41.9479C35.3685 42.4073 35.3317 42.4396 34.4858 42.4396V42.6272H36.8948V42.4396C36.0489 42.4396 36.0029 42.4073 36.0029 41.9479H36.003Z" fill="#F5F5F5" stroke="#FEFEFE" stroke-width="0.189137" stroke-miterlimit="22.9256"/>
<path fill-rule="evenodd" clip-rule="evenodd" d="M22.3923 42.4654C21.3257 42.4654 20.204 41.8185 20.204 40.1815C20.204 38.7841 21.0775 37.9883 22.4934 37.9883C23.7163 37.9883 23.8082 38.3183 24.0381 39.0752L24.3507 39.0299C24.2495 38.6999 24.176 38.3441 24.1116 37.9818C23.753 37.8783 23.137 37.7554 22.4934 37.7554C20.6913 37.7554 19.542 38.6094 19.542 40.188C19.542 42.226 21.1234 42.7241 22.3187 42.7241C23.2565 42.7241 24.1116 42.3813 24.5989 41.4367L24.2771 41.3655C23.9645 41.9607 23.4036 42.4654 22.3923 42.4654V42.4654Z" fill="#F5F5F5" stroke="#FEFEFE" stroke-width="0.189137" stroke-miterlimit="22.9256"/>
<path fill-rule="evenodd" clip-rule="evenodd" d="M156.458 38.0919V41.9479C156.458 42.4073 156.421 42.4396 155.575 42.4396V42.6272H157.984V42.4396C157.138 42.4396 157.092 42.4073 157.092 41.9479V38.0919H158.407C158.949 38.0919 159.004 38.1113 159.207 38.8877H159.51L159.29 37.8525H154.26L154.049 38.8877H154.352C154.536 38.1242 154.6 38.0919 155.143 38.0919H156.458H156.458Z" fill="#F5F5F5" stroke="#FEFEFE" stroke-width="0.189137" stroke-miterlimit="22.9256"/>
<path fill-rule="evenodd" clip-rule="evenodd" d="M167.163 38.4995V41.935C167.163 42.4073 167.108 42.4396 166.427 42.4396V42.6272H169.121C171.015 42.6272 171.328 41.7862 171.328 41.2751C171.328 40.6087 170.592 40.007 168.671 40.007H167.797V38.5448C167.797 38.079 167.862 38.0402 168.588 38.0402V37.8525H166.427V38.0402C167.099 38.0402 167.163 38.079 167.163 38.4995H167.163ZM167.797 42.0579V40.2464H168.781C170.271 40.2464 170.666 40.7963 170.666 41.2686C170.666 42.032 170.124 42.3879 169.075 42.3879H168.138C167.852 42.3879 167.797 42.3361 167.797 42.0579L167.797 42.0579Z" fill="#F5F5F5" stroke="#FEFEFE" stroke-width="0.189137" stroke-miterlimit="22.9256"/>
<path fill-rule="evenodd" clip-rule="evenodd" d="M172.569 38.5383V41.9479C172.569 42.4072 172.533 42.4396 171.76 42.4396V42.6272H174.013V42.4396C173.25 42.4396 173.204 42.4072 173.204 41.9479V38.5383C173.204 38.066 173.25 38.0402 174.013 38.0402V37.8525H171.769V38.0402C172.532 38.0402 172.569 38.066 172.569 38.5383H172.569Z" fill="#F5F5F5" stroke="#FEFEFE" stroke-width="0.189137" stroke-miterlimit="22.9256"/>
<path fill-rule="evenodd" clip-rule="evenodd" d="M22.3923 42.4655C21.3257 42.4655 20.2041 41.8185 20.2041 40.1817C20.2041 38.7842 21.0775 37.9884 22.4935 37.9884C23.7163 37.9884 23.8082 38.3184 24.0381 39.0754L24.3508 39.03C24.2496 38.7002 24.1761 38.3443 24.1116 37.9819C23.753 37.8785 23.137 37.7556 22.4935 37.7556C20.6912 37.7556 19.542 38.6095 19.542 40.1881C19.542 42.2261 21.1234 42.7244 22.3188 42.7244C23.2565 42.7244 24.1116 42.3815 24.599 41.4368L24.2772 41.3657C23.9645 41.961 23.4036 42.4656 22.3923 42.4656V42.4655Z" fill="#F5F5F5" stroke="#FEFEFE" stroke-width="0.189137" stroke-miterlimit="22.9256"/>
<path fill-rule="evenodd" clip-rule="evenodd" d="M34.0537 38.0919H35.3686V41.948C35.3686 42.4073 35.3318 42.4396 34.4859 42.4396V42.6272H36.8948V42.4396C36.0489 42.4396 36.003 42.4073 36.003 41.948V38.0919H37.3177C37.8603 38.0919 37.9153 38.1113 38.1176 38.8877H38.421L38.2004 37.8525H33.171L32.9596 38.8877H33.263C33.4468 38.1243 33.5112 38.0919 34.0536 38.0919H34.0537Z" fill="#F5F5F5" stroke="#FEFEFE" stroke-width="0.189137" stroke-miterlimit="22.9256"/>
<path fill-rule="evenodd" clip-rule="evenodd" d="M34.0537 38.0919H35.3686V41.948C35.3686 42.4073 35.3318 42.4396 34.4859 42.4396V42.6272H36.8948V42.4396C36.0489 42.4396 36.003 42.4073 36.003 41.948V38.0919H37.3177C37.8603 38.0919 37.9153 38.1113 38.1176 38.8877H38.421L38.2004 37.8525H33.171L32.9596 38.8877H33.263C33.4468 38.1243 33.5112 38.0919 34.0536 38.0919H34.0537Z" fill="#F5F5F5" stroke="#FEFEFE" stroke-width="0.189137" stroke-miterlimit="22.9256"/>
<path fill-rule="evenodd" clip-rule="evenodd" d="M47.4897 41.9415C47.4897 42.4073 47.4252 42.4396 46.7449 42.4396V42.6272H51.1858L51.5168 41.6114H51.1949C50.9376 42.3426 50.8455 42.3879 50.3031 42.3879H48.3907C48.1976 42.3879 48.1241 42.3491 48.1241 42.0967V40.2593H49.5768C49.9997 40.2593 50.0549 40.2981 50.0549 40.9257H50.3767V39.3536H50.0549C50.0549 39.9617 49.9997 40.0134 49.5859 40.0134H48.1241V38.4089C48.1241 38.1308 48.1517 38.0919 48.4735 38.0919H50.0365C50.5422 38.0919 50.6342 38.1049 50.8824 38.8489H51.2042L50.91 37.8525H46.7449V38.0401C47.4252 38.0401 47.4897 38.066 47.4897 38.5319V41.9415Z" fill="#F5F5F5" stroke="#FEFEFE" stroke-width="0.189137" stroke-miterlimit="22.9256"/>
<path fill-rule="evenodd" clip-rule="evenodd" d="M47.4899 38.531V41.9414C47.4899 42.4076 47.4251 42.4386 46.7452 42.4386V42.6272H51.1859L51.5172 41.6107H51.1951C50.9373 42.3426 50.8449 42.3875 50.3028 42.3875H48.3913C48.1979 42.3875 48.1244 42.3495 48.1244 42.096V40.2597H49.5771C49.9997 40.2597 50.0554 40.2983 50.0554 40.9255H50.3769V39.3531H50.0554C50.0554 39.9613 49.9997 40.0131 49.5863 40.0131H48.1244V38.409C48.1244 38.1297 48.1514 38.0917 48.474 38.0917H50.0364C50.5417 38.0917 50.6341 38.1038 50.8822 38.8483H51.2048L50.9097 37.8525H46.7452V38.0405C47.4251 38.0405 47.4899 38.0658 47.4899 38.5309V38.531Z" fill="#F5F5F5" stroke="#F5F5F5" stroke-width="0.377927" stroke-miterlimit="22.9256"/>
<path fill-rule="evenodd" clip-rule="evenodd" d="M36.0031 41.9487V38.0922H37.3179C37.86 38.0922 37.9157 38.1111 38.1178 38.8873H38.421L38.1999 37.853H33.1712L32.9599 38.8873H33.2626C33.4468 38.1243 33.5117 38.0922 34.0537 38.0922H35.3681V41.9487C35.3681 42.408 35.3313 42.4391 34.4861 42.4391V42.6276H36.8953V42.4391C36.0485 42.4391 36.0031 42.408 36.0031 41.9487Z" fill="#F5F5F5" stroke="#F5F5F5" stroke-width="0.377927" stroke-miterlimit="22.9256"/>
<path fill-rule="evenodd" clip-rule="evenodd" d="M24.3504 39.0302C24.2499 38.6996 24.1769 38.3443 24.1115 37.9821C23.7538 37.8787 23.1377 37.7556 22.4935 37.7556C20.6911 37.7556 19.5422 38.6088 19.5422 40.1886C19.5422 42.2261 21.1235 42.724 22.3195 42.724C23.2565 42.724 24.1115 42.3814 24.5985 41.4362L24.2775 41.3661C23.964 41.9599 23.4041 42.4647 22.3924 42.4647C21.3262 42.4647 20.2037 41.8179 20.2037 40.1812C20.2037 38.7835 21.0781 37.9879 22.4935 37.9879C23.7159 37.9879 23.8084 38.3179 24.0375 39.075L24.3504 39.0302L24.3504 39.0302Z" fill="#F5F5F5" stroke="#F5F5F5" stroke-width="0.377927" stroke-miterlimit="22.9256"/>
<path fill-rule="evenodd" clip-rule="evenodd" d="M89.4986 37.7556C88.0822 37.7556 86.5009 38.273 86.5009 40.2398C86.5009 41.7794 87.4936 42.724 89.4986 42.724C91.3377 42.724 92.4964 41.8961 92.4964 40.2398C92.4964 38.4541 91.1442 37.7556 89.4986 37.7556ZM87.1726 40.2398C87.1726 39.3918 87.4201 38.8428 87.8346 38.4932C88.2664 38.1495 88.8458 37.9879 89.4894 37.9879C90.1244 37.9879 90.7308 38.1638 91.154 38.4932C91.5668 38.8428 91.8246 39.3918 91.8246 40.2398C91.8246 40.9774 91.5863 41.58 91.154 41.9743C90.767 42.2899 90.132 42.4848 89.4986 42.4848C88.8544 42.4848 88.2297 42.2899 87.8433 41.9743C87.4023 41.5799 87.1726 40.9774 87.1726 40.2398H87.1726Z" fill="#F5F5F5" stroke="#F5F5F5" stroke-width="0.377927" stroke-miterlimit="22.9256"/>
<path fill-rule="evenodd" clip-rule="evenodd" d="M65.4949 42.4391C64.9344 42.4391 64.7967 42.4017 64.401 41.9544L62.4976 39.7295L64.1611 38.3578C64.5021 38.0726 64.6221 38.041 65.0079 38.041V37.853H63.3256V38.041C63.6288 38.041 63.7757 38.0663 63.7757 38.1439C63.7757 38.2221 63.6288 38.3578 63.3623 38.5838L61.3481 40.2786H61.3211V38.5383C61.3211 38.0663 61.3579 38.041 62.0015 38.041V37.8531H59.9517V38.041C60.631 38.041 60.6872 38.0663 60.6872 38.5315V41.9418C60.6872 42.4081 60.631 42.4391 59.9517 42.4391V42.6276H62.0383V42.4391C61.3676 42.4391 61.3211 42.408 61.3211 41.9418V40.6994L62.075 40.0653L64.2454 42.6277H65.4949V42.4391V42.4391Z" fill="#F5F5F5" stroke="#F5F5F5" stroke-width="0.377927" stroke-miterlimit="22.9256"/>
<path fill-rule="evenodd" clip-rule="evenodd" d="M141.669 38.531V41.9414C141.669 42.4076 141.605 42.4386 140.925 42.4386V42.6272H145.367L145.697 41.6107H145.376C145.118 42.3426 145.026 42.3875 144.483 42.3875H142.571C142.377 42.3875 142.303 42.3495 142.303 42.096V40.2597H143.757C144.18 40.2597 144.235 40.2983 144.235 40.9255H144.557V39.3531H144.235C144.235 39.9613 144.18 40.0131 143.767 40.0131H142.303V38.409C142.303 38.1297 142.333 38.0917 142.654 38.0917H144.217C144.723 38.0917 144.815 38.1038 145.063 38.8483H145.385L145.09 37.8525H140.925V38.0405C141.605 38.0405 141.669 38.0658 141.669 38.5309L141.669 38.531Z" fill="#F5F5F5" stroke="#F5F5F5" stroke-width="0.377927" stroke-miterlimit="22.9256"/>
<path fill-rule="evenodd" clip-rule="evenodd" d="M156.458 38.0922V41.9487C156.458 42.408 156.421 42.4391 155.575 42.4391V42.6276H157.983V42.4391C157.138 42.4391 157.092 42.408 157.092 41.9487V38.0922H158.408C158.949 38.0922 159.005 38.1111 159.207 38.8873H159.51L159.289 37.853H154.261L154.049 38.8873H154.352C154.536 38.1243 154.601 38.0922 155.143 38.0922H156.458H156.458Z" fill="#F5F5F5" stroke="#F5F5F5" stroke-width="0.377927" stroke-miterlimit="22.9256"/>
<path fill-rule="evenodd" clip-rule="evenodd" d="M128.593 41.9417V40.6994L129.347 40.0652L131.516 42.6276H132.767V42.4391C132.206 42.4391 132.069 42.4017 131.673 41.9544L129.77 39.7295L131.434 38.3578C131.774 38.0726 131.894 38.041 132.28 38.041V37.853H130.598V38.041C130.9 38.041 131.048 38.0663 131.048 38.1439C131.048 38.2221 130.9 38.3578 130.634 38.5838L128.621 40.2786H128.593V38.5383C128.593 38.0663 128.629 38.041 129.273 38.041V37.8531H127.223V38.041C127.903 38.041 127.959 38.0663 127.959 38.5315V41.9418C127.959 42.4081 127.903 42.4391 127.223 42.4391V42.6276H129.311V42.4391C128.638 42.4391 128.593 42.408 128.593 41.9418V41.9417Z" fill="#F5F5F5" stroke="#F5F5F5" stroke-width="0.377927" stroke-miterlimit="22.9256"/>
<path fill-rule="evenodd" clip-rule="evenodd" d="M118.669 41.9864L116.425 37.7556H116.122L114.081 42.0772C113.934 42.3814 113.833 42.4389 113.474 42.4389V42.6274H114.983V42.4389C114.597 42.4389 114.458 42.4078 114.458 42.2715C114.458 42.2008 114.495 42.0962 114.559 41.9542L114.945 41.0815H117.547L118.026 42.0059C118.081 42.1226 118.117 42.2066 118.117 42.2715C118.117 42.4015 117.979 42.4389 117.584 42.4389V42.6274H119.34V42.4389C118.99 42.4389 118.872 42.3756 118.669 41.9864V41.9864ZM116.187 38.4472L117.418 40.8354H115.056L116.151 38.4472H116.187H116.187Z" fill="#F5F5F5" stroke="#F5F5F5" stroke-width="0.377927" stroke-miterlimit="22.9256"/>
<path fill-rule="evenodd" clip-rule="evenodd" d="M105.361 41.9343L105.362 38.5383C105.362 38.0726 105.416 38.041 106.106 38.041V37.853H99.7889V38.041C100.471 38.041 100.526 38.0663 100.526 38.5383V41.9343C100.526 42.408 100.489 42.4391 99.7889 42.4391V42.6276H101.831V42.4391C101.215 42.4391 101.16 42.408 101.16 41.9418V38.5906C101.16 38.1301 101.207 38.0922 101.739 38.0922H104.158C104.7 38.0922 104.727 38.1566 104.727 38.5906V41.9418C104.727 42.408 104.7 42.4391 104.066 42.4391V42.6276H106.106V42.4391C105.399 42.4391 105.362 42.4017 105.361 41.9343H105.361Z" fill="#F5F5F5" stroke="#F5F5F5" stroke-width="0.377927" stroke-miterlimit="22.9256"/>
<path fill-rule="evenodd" clip-rule="evenodd" d="M172.569 38.5383V41.9487C172.569 42.408 172.532 42.4391 171.76 42.4391V42.6276H174.013V42.4391C173.25 42.4391 173.204 42.408 173.204 41.9487V38.5383C173.204 38.0663 173.25 38.041 174.013 38.041V37.853H171.77V38.041C172.532 38.041 172.569 38.0663 172.569 38.5383V38.5383Z" fill="#F5F5F5" stroke="#F5F5F5" stroke-width="0.377927" stroke-miterlimit="22.9256"/>
<path fill-rule="evenodd" clip-rule="evenodd" d="M167.798 42.0579V40.247H168.782C170.271 40.247 170.666 40.7972 170.666 41.2686C170.666 42.0321 170.124 42.388 169.075 42.388H168.137C167.852 42.388 167.798 42.3362 167.798 42.0579H167.798ZM171.328 41.2755C171.328 40.6085 170.592 40.0078 168.671 40.0078H167.798V38.5452C167.798 38.0784 167.861 38.041 168.588 38.041V37.853H166.427V38.041C167.098 38.041 167.163 38.0784 167.163 38.4998V41.9343C167.163 42.408 167.108 42.4391 166.427 42.4391V42.6276H169.121C171.015 42.6276 171.328 41.7865 171.328 41.2755H171.328Z" fill="#F5F5F5" stroke="#F5F5F5" stroke-width="0.377927" stroke-miterlimit="22.9256"/>
<path fill-rule="evenodd" clip-rule="evenodd" d="M73.7383 42.9059C74.4497 42.9059 74.983 41.6722 74.983 40.168V38.6375C74.9742 38.2547 74.9742 38.1823 75.4988 38.1823H76.9835C77.4636 38.1823 77.5169 38.2152 77.5169 38.6903V42.1143C77.5169 42.5827 77.4636 42.6156 76.9034 42.6156V42.8069H78.806V42.6156C78.1748 42.6156 78.1304 42.5827 78.1304 42.1011V38.644C78.1304 38.1559 78.1659 38.1295 78.806 38.1295V37.9382H73.7295V38.1295C74.3518 38.1295 74.4497 38.1691 74.4497 38.644C74.4497 39.0624 74.473 39.6085 74.4488 40.1613V40.1746C74.4488 40.2338 74.4461 40.7492 74.3051 41.2867C74.1892 41.7536 73.9895 42.1523 73.6494 42.3848C73.5072 42.4705 73.3828 42.5761 73.3828 42.7212C73.3828 42.8597 73.5517 42.906 73.7383 42.906L73.7383 42.9059Z" fill="#F5F5F5" stroke="#F5F5F5" stroke-width="0.377927" stroke-miterlimit="22.9256"/>
<defs>
<linearGradient id="paint0_linear_121_34" x1="93.2346" y1="40.7945" x2="89.9362" y2="40.727" gradientUnits="userSpaceOnUse">
<stop stop-color="#86776F"/>
<stop offset="1" stop-color="#FEFEFE"/>
</linearGradient>
</defs>
</svg>
