<svg width="271" height="64" viewBox="0 0 271 64" fill="none" xmlns="http://www.w3.org/2000/svg">
<path fill-rule="evenodd" clip-rule="evenodd" d="M21.081 17.5172V34.0222C21.081 34.0222 11.2099 32.8827 11.2099 23.8294C11.2099 15.8234 21.081 17.5172 21.081 17.5172ZM20.2704 35.6238C21.1391 35.7778 21.1672 35.716 21.1672 36.547C21.1672 37.3784 20.7914 41.1967 20.7914 41.1967L14.7702 41.9669L14.7125 42.5212C14.7125 42.5212 16.1019 44.1228 17.8965 43.753C21.6089 42.9886 26.3458 42.9629 30.1267 43.6764L20.9761 46.622L38.935 51.5709L41.7703 39.9273L33.7012 42.5212L33.6441 41.9669L27.6228 41.1967C27.6228 41.1967 27.2465 37.3784 27.2465 36.547C27.2465 35.716 27.275 35.7778 28.1439 35.6238C29.0121 35.4698 39.3171 34.3303 42.5592 26.5087L42.8266 25.8103L44.1096 30.3202L48.7622 11.2155L37.8165 8.19928L40.5868 17.9379C39.1969 17.0342 37.6884 16.6355 37.0886 16.439C35.583 15.9465 27.3041 15.7307 27.3041 15.7307V11.2349C27.3041 11.2349 28.3503 10.7131 29.8814 10.3903C31.4121 10.0681 32.8418 10.022 32.8418 10.022L33.2752 8.83847C33.2752 8.83847 30.661 8.70013 28.8846 9.0234C25.3869 9.65839 23.0273 9.65839 19.5296 9.0234L18.8146 8.92073L28.7861 5.71071L10.8268 0.76123L7.99144 12.4048L15.5538 9.9707L15.5719 10.0221C15.5719 10.0221 17.0022 10.0681 18.5329 10.3904C20.0636 10.7131 21.1101 11.2349 21.1101 11.2349V15.7307C21.1101 15.7307 12.8312 15.9465 11.3257 16.439C10.4938 16.711 7.91855 17.3706 6.33031 19.2263L1 41.1172L11.9452 44.1334L7.84719 29.7277C12.1078 34.6641 19.5391 35.494 20.2704 35.6239L20.2704 35.6238ZM27.3333 34.0222V17.5172C27.3333 17.5172 37.2044 15.8234 37.2044 23.8294C37.2044 32.8827 27.3333 34.0222 27.3333 34.0222Z" fill="#07628F" stroke="#07628F" stroke-width="0.377927" stroke-miterlimit="22.9256"/>
<path fill-rule="evenodd" clip-rule="evenodd" d="M51.7701 40.4635L54.3296 40.8226V42.7076L44.6541 42.6477C44.6541 42.6477 44.9072 40.9422 45.9479 40.7627C46.9886 40.5832 47.9449 40.7328 48.7324 38.4887C49.5199 36.2447 55.7921 18.0228 55.7921 18.0228L53.4577 17.544L53.317 15.5992C53.317 15.5992 54.9765 16.048 57.9298 16.048C60.8831 16.048 64.005 15.4795 64.005 15.4795L64.0894 17.5739L61.8956 17.9629L69.4335 40.4635H71.1492V42.8569H60.0956L60.7143 40.7926L63.6676 40.4036L60.5174 30.9486H53.9924L51.7702 40.4635L51.7701 40.4635ZM57.536 19.3393L54.414 28.5849H60.0111L57.536 19.3393H57.536Z" fill="#EF7F1A"/>
<path fill-rule="evenodd" clip-rule="evenodd" d="M71.796 16.1375L72.4711 18.1123L74.8337 18.2619V40.4932H72.5557V42.8567H84.481C84.481 42.8567 92.4689 42.4979 92.4689 35.3467C92.4689 28.1957 80.0652 25.7122 80.0652 25.7122V18.4716C80.0652 18.4716 85.4373 18.3816 87.0968 18.9801C88.7563 19.5784 89.7688 23.0492 89.7688 23.0492L91.8501 23.7674C91.8501 23.7674 91.4845 17.6635 91.7658 16.2871C92.047 14.9108 92.2439 13.3848 92.2439 13.3848L90.1344 14.3123L89.6281 15.8981L71.796 16.1375H71.796ZM80.0486 28.4576V40.5386C80.0486 40.5386 87.337 40.1179 87.337 35.3696C87.337 30.6214 80.0486 28.4576 80.0486 28.4576Z" fill="#EF7F1A"/>
<path fill-rule="evenodd" clip-rule="evenodd" d="M93.5377 17.5736L93.0273 15.5463H104.254C104.254 15.5463 112.467 15.2397 112.467 22.4507C112.467 29.6616 100.429 32.0254 100.429 32.0254V39.9843L102.426 40.493L102.623 42.378H93.313L93.9877 40.2836H95.5347V17.7832L93.5377 17.5735L93.5377 17.5736ZM100.569 17.8429V29.9011C100.569 29.9011 106.87 27.5071 106.87 22.8397C106.87 18.1723 100.569 17.8429 100.569 17.8429V17.8429Z" fill="#EF7F1A"/>
<path fill-rule="evenodd" clip-rule="evenodd" d="M110.751 15.5993L111.247 17.5709H114.014V39.8174L111.121 40.2153L110.413 42.2885H122.255V40.4426L119.021 40.1093V37.4311L131.03 21.6134V39.8821L128.28 40.1548L127.317 42.1523H138.912V40.2458L136.137 40.0338C136.137 40.0338 135.475 36.0312 135.475 28.7585C135.475 21.486 135.983 17.6993 135.983 17.6993H139.046V15.48H127.486L128.415 17.3647L130.777 17.7836L130.833 18.382L118.823 33.163L118.936 17.5442L121.608 17.4544L122.424 16.7364V15.3901L110.751 15.5994L110.751 15.5993Z" fill="#EF7F1A"/>
<path fill-rule="evenodd" clip-rule="evenodd" d="M140.195 15.5989L140.691 17.5705H143.458V39.817L140.565 40.2149L139.857 42.2881H151.699V40.4422L148.082 40.1089L148.044 30.0544L149.453 28.6743L164.079 43.5749L165.766 41.8694L153.334 25.0539L161.547 17.7531C161.547 17.7531 162.025 17.6335 163.094 17.4539C164.163 17.2744 164.529 15.3516 164.529 15.3516H155.123V17.0615C155.123 17.0615 155.901 17.0768 156.071 17.0768C156.241 17.0768 157.047 17.813 157.047 17.813L148.032 26.6139L147.997 17.5436L151.052 17.4539L151.867 16.7358V15.3895L140.195 15.5988V15.5989Z" fill="#EF7F1A"/>
<path fill-rule="evenodd" clip-rule="evenodd" d="M173.409 40.4635L175.969 40.8226V42.7076L166.293 42.6477C166.293 42.6477 166.546 40.9422 167.587 40.7627C168.628 40.5832 169.584 40.7328 170.372 38.4887C171.159 36.2447 177.431 18.0228 177.431 18.0228L175.097 17.544L174.956 15.5992C174.956 15.5992 176.616 16.048 179.569 16.048C182.522 16.048 185.644 15.4795 185.644 15.4795L185.729 17.5739L183.535 17.9629L191.073 40.4635H192.788V42.8569H181.735L182.353 40.7926L185.307 40.4036L182.157 30.9486H175.632L173.409 40.4635L173.409 40.4635ZM179.175 19.3393L176.053 28.5849H181.65L179.175 19.3393H179.175Z" fill="#EF7F1A"/>
<path fill-rule="evenodd" clip-rule="evenodd" d="M193.891 15.5994L194.369 17.571H197.038V39.8175L194.247 40.2154L193.565 42.2886H204.987V40.4427L201.305 40.0794L201.27 30.4803L213.357 29.0903L213.452 39.8821L210.799 40.1548L209.87 42.1523H221.055V40.2458L218.378 40.0338C218.378 40.0338 217.739 36.0312 217.739 28.7585C217.739 21.486 218.23 17.6993 218.23 17.6993H221.184V15.48H210.034L210.929 17.3647L213.208 17.7836L213.262 18.382L213.335 26.6701H201.257L201.223 17.5143L204.363 17.4544L205.15 16.7364V15.3901L193.891 15.5994H193.891Z" fill="#EF7F1A"/>
<path fill-rule="evenodd" clip-rule="evenodd" d="M221.975 13.7925L221.919 21.9667L223.388 21.606C223.388 21.606 223.727 20.1034 224.631 19.3822C225.535 18.6609 229.32 18.3604 229.32 18.3604V39.8176L225.254 40.4935L224.719 42.4683H232.088H239.457L238.923 40.4935L234.856 39.8176V18.3604C234.856 18.3604 238.642 18.6609 239.546 19.3822C240.45 20.1034 240.789 21.606 240.789 21.606L242.258 21.9667L242.201 13.7925L240.245 14.193L240.048 15.719L232.088 15.8685L224.128 15.719L223.932 14.193L221.975 13.7925H221.975Z" fill="#EF7F1A"/>
<path fill-rule="evenodd" clip-rule="evenodd" d="M243.332 4.71636V21.1246L245.818 19.0813L245.592 13.191C245.592 13.191 246.609 12.1092 247.57 12.1092C248.53 12.1092 249.717 12.4699 249.717 14.1527C249.717 15.8357 249.717 39.7569 249.717 39.7569L245.027 40.2981L244.493 42.4199H259.717C259.717 42.4199 270 41.8608 270 33.5664C270 25.272 255.423 22.2067 255.423 22.2067V11.6194L261.03 10.6619V8.80684H245.336L245.111 5.42575L243.332 4.71631L243.332 4.71636ZM255.367 24.5508V39.8171C255.367 39.8171 263.164 40.4184 263.164 33.326C263.164 26.2337 255.367 24.5508 255.367 24.5508Z" fill="#EF7F1A"/>
<path fill-rule="evenodd" clip-rule="evenodd" d="M60.5176 30.9481L63.6673 40.4033L60.7146 40.7925L60.0951 42.8571H71.1493V40.4634H69.433L61.8953 17.9625L64.0897 17.5742L64.0049 15.4795C64.0049 15.4795 60.8825 16.0474 57.9298 16.0474C54.9763 16.0474 53.3166 15.5989 53.3166 15.5989L53.4579 17.5441L55.792 18.0226L48.7324 38.4881C47.9449 40.7323 46.9887 40.5828 45.9477 40.7623C44.9074 40.9419 44.6538 42.6473 44.6538 42.6473L54.3294 42.7075V40.8225L51.7699 40.4634L53.9926 30.948H60.5175L60.5176 30.9481ZM57.5357 19.339L60.0112 28.5845H54.4143L57.5357 19.339Z" fill="#07628F" stroke="#07628F" stroke-width="0.377927" stroke-miterlimit="22.9256"/>
<path fill-rule="evenodd" clip-rule="evenodd" d="M74.8338 18.2623V40.4934H72.5554V42.857H84.4811C84.4811 42.857 92.4687 42.4979 92.4687 35.347C92.4687 28.1961 80.0649 25.7122 80.0649 25.7122V18.4719C80.0649 18.4719 85.4373 18.3817 87.0971 18.9797C88.756 19.5786 89.7688 23.0497 89.7688 23.0497L91.85 23.767C91.85 23.767 91.4842 17.6635 91.7661 16.287C92.0471 14.9107 92.2442 13.3848 92.2442 13.3848L90.1346 14.3127L89.6282 15.8978L71.7963 16.1375L72.4715 18.1119L74.8339 18.2622L74.8338 18.2623ZM80.0488 40.5389V28.4572C80.0488 28.4572 87.3369 30.6215 87.3369 35.3693C87.3369 40.1179 80.0488 40.5389 80.0488 40.5389Z" fill="#07628F" stroke="#07628F" stroke-width="0.377927" stroke-miterlimit="22.9256"/>
<path fill-rule="evenodd" clip-rule="evenodd" d="M95.5345 17.784V40.284H93.9878L93.3126 42.3787H102.622L102.425 40.4937L100.429 39.9851V32.0257C100.429 32.0257 112.467 29.6621 112.467 22.4511C112.467 15.2401 104.254 15.5468 104.254 15.5468H93.0276L93.538 17.5744L95.5345 17.7841V17.784ZM100.569 29.9018V17.8433C100.569 17.8433 106.87 18.1724 106.87 22.8403C106.87 27.5074 100.569 29.9019 100.569 29.9019V29.9018Z" fill="#07628F" stroke="#07628F" stroke-width="0.377927" stroke-miterlimit="22.9256"/>
<path fill-rule="evenodd" clip-rule="evenodd" d="M114.013 17.5708V39.8173L111.121 40.2151L110.413 42.2883H122.255V40.4419L119.021 40.1094V37.4305L131.03 21.6132V39.8818L128.28 40.1541L127.318 42.1517H138.912V40.2452L136.137 40.0338C136.137 40.0338 135.475 36.031 135.475 28.758C135.475 21.486 135.983 17.6988 135.983 17.6988H139.046V15.4795H127.486L128.414 17.3645L130.777 17.783L130.833 18.3818L118.824 33.1631L118.936 17.5441L121.608 17.4539L122.423 16.7356V15.3901L110.751 15.5989L111.247 17.5707H114.013L114.013 17.5708Z" fill="#07628F" stroke="#07628F" stroke-width="0.377927" stroke-miterlimit="22.9256"/>
<path fill-rule="evenodd" clip-rule="evenodd" d="M143.458 17.5708V39.8174L140.565 40.2151L139.857 42.2884H151.699V40.442L148.082 40.1095L148.044 30.0546L149.453 28.6747L164.079 43.5754L165.766 41.8699L153.334 25.0542L161.547 17.7538C161.547 17.7538 162.025 17.6335 163.095 17.454C164.163 17.2744 164.529 15.3516 164.529 15.3516H155.122V17.0622L156.071 17.0768C156.241 17.0768 157.047 17.8132 157.047 17.8132L148.031 26.6145L147.997 17.5442L151.052 17.454L151.868 16.7357V15.3902L140.195 15.599L140.691 17.5708H143.458H143.458Z" fill="#07628F" stroke="#07628F" stroke-width="0.377927" stroke-miterlimit="22.9256"/>
<path fill-rule="evenodd" clip-rule="evenodd" d="M182.156 30.9481L185.306 40.4033L182.354 40.7925L181.735 42.8571H192.788V40.4634H191.073L183.534 17.9625L185.729 17.5742L185.644 15.4795C185.644 15.4795 182.522 16.0474 179.569 16.0474C176.615 16.0474 174.956 15.5989 174.956 15.5989L175.097 17.5441L177.431 18.0226L170.371 38.4881C169.584 40.7323 168.628 40.5828 167.587 40.7623C166.546 40.9419 166.294 42.6473 166.294 42.6473L175.968 42.7075V40.8225L173.409 40.4634L175.631 30.948H182.156L182.156 30.9481ZM179.175 19.339L181.65 28.5845H176.053L179.176 19.339H179.175Z" fill="#07628F" stroke="#07628F" stroke-width="0.377927" stroke-miterlimit="22.9256"/>
<path fill-rule="evenodd" clip-rule="evenodd" d="M197.038 17.5708V39.8174L194.247 40.2151L193.565 42.2884H204.987V40.442L201.305 40.0794L201.27 30.4799L213.357 29.0897L213.452 39.8818L210.799 40.1541L209.871 42.1517H221.055V40.2452L218.379 40.0338C218.379 40.0338 217.739 36.031 217.739 28.758C217.739 21.486 218.23 17.6988 218.23 17.6988H221.184V15.4795H210.033L210.929 17.3645L213.208 17.783L213.262 18.3818L213.336 26.6694H201.256L201.223 17.514L204.364 17.4539L205.15 16.7356V15.3901L193.891 15.5989L194.37 17.5707H197.038V17.5708Z" fill="#07628F" stroke="#07628F" stroke-width="0.377927" stroke-miterlimit="22.9256"/>
<path fill-rule="evenodd" clip-rule="evenodd" d="M229.321 18.3602V39.8173L225.254 40.4934L224.719 42.4678H232.088H239.457L238.923 40.4934L234.856 39.8173V18.3602C234.856 18.3602 238.641 18.6609 239.546 19.3818C240.45 20.1035 240.789 21.6054 240.789 21.6054L242.258 21.9662L242.202 13.792L240.245 14.1924L240.048 15.7183L232.088 15.8686L224.129 15.7183L223.932 14.1924L221.976 13.792L221.919 21.9662L223.388 21.6054C223.388 21.6054 223.727 20.1035 224.631 19.3818C225.535 18.6609 229.321 18.3602 229.321 18.3602Z" fill="#07628F" stroke="#07628F" stroke-width="0.377927" stroke-miterlimit="22.9256"/>
<path fill-rule="evenodd" clip-rule="evenodd" d="M249.717 14.1527V39.7569L245.028 40.2982L244.493 42.4195H259.717C259.717 42.4195 270 41.861 270 33.5665C270 25.2721 255.423 22.2066 255.423 22.2066V11.6189L261.03 10.6618V8.80689H245.336L245.111 5.42517L243.332 4.71631V21.124L245.818 19.0809L245.592 13.1912C245.592 13.1912 246.609 12.1087 247.57 12.1087C248.53 12.1087 249.717 12.4695 249.717 14.1526L249.717 14.1527ZM255.367 39.8171V24.5504C255.367 24.5504 263.164 26.2335 263.164 33.326C263.164 40.4185 255.367 39.8171 255.367 39.8171Z" fill="#07628F" stroke="#07628F" stroke-width="0.377927" stroke-miterlimit="22.9256"/>
<path d="M35.7861 61.0849C35.319 61.9744 34.4808 62.7287 32.9694 62.7287C31.3756 62.7287 29.6994 61.7618 29.6994 59.3156C29.6994 57.2273 31.0046 56.038 33.1208 56.038C34.9481 56.038 35.0856 56.5311 35.4289 57.6622L35.8962 57.5945C35.7448 57.1015 35.6351 56.5698 35.539 56.0283C35.0031 55.8736 34.0823 55.6899 33.1208 55.6899C30.4275 55.6899 28.71 56.966 28.71 59.3252C28.71 62.3709 31.0731 63.1155 32.8595 63.1155C34.2611 63.1155 35.539 62.6029 36.2672 61.1913L35.7861 61.0849H35.7861ZM53.3095 56.1927H55.2744C56.085 56.1927 56.1673 56.2217 56.4698 57.3819H56.9232L56.5933 55.8349H49.0776L48.7615 57.3819H49.2149C49.4898 56.241 49.5857 56.1927 50.3965 56.1927H52.3615V61.9551C52.3615 62.6416 52.3064 62.69 51.0423 62.69V62.9703H54.6422V62.69C53.3781 62.69 53.3094 62.6416 53.3094 61.9551V56.1927H53.3095ZM75.999 62.9704L76.494 61.4524H76.0129C75.6283 62.5449 75.4907 62.6126 74.6801 62.6126H71.822C71.5335 62.6126 71.4236 62.5546 71.4236 62.1777V59.4317H73.5946C74.2267 59.4317 74.3091 59.4897 74.3091 60.4276H74.79V58.0782H74.3091C74.3091 58.987 74.2266 59.0643 73.6084 59.0643H71.4236V56.6666C71.4236 56.2508 71.4649 56.1927 71.9458 56.1927H74.2815C75.0372 56.1927 75.1748 56.2121 75.5456 57.324H76.0266L75.587 55.835H69.3626V56.1154C70.3796 56.1154 70.4755 56.1541 70.4755 56.8502V61.9455C70.4755 62.6417 70.3796 62.6901 69.3626 62.6901V62.9704H75.9991L75.999 62.9704ZM92.9042 58.6389L95.3913 56.5892C95.8996 56.1637 96.0782 56.1153 96.6554 56.1153V55.8349H94.1409V56.1153C94.5944 56.1153 94.8139 56.154 94.8139 56.2701C94.8139 56.3859 94.5943 56.5892 94.1959 56.9276L91.1867 59.4607H91.1455V56.8598C91.1455 56.154 91.2005 56.1152 92.1623 56.1152V55.8349H89.0982V56.1152C90.1151 56.1152 90.1973 56.154 90.1973 56.8501V61.9453C90.1973 62.6416 90.1151 62.69 89.0982 62.69V62.9703H92.2172V62.69C91.2141 62.69 91.1455 62.6416 91.1455 61.9453V60.0892L92.272 59.1415L95.5151 62.9703H97.3836V62.69C96.5453 62.69 96.3396 62.6319 95.7485 61.9647L92.9043 58.6389L92.9042 58.6389ZM110.524 59.1126C110.524 59.2674 110.51 61.5588 109.287 62.3516C109.067 62.4774 108.875 62.632 108.875 62.8446C108.875 63.0478 109.136 63.1155 109.424 63.1155C110.524 63.1155 111.348 61.3075 111.348 59.1029V56.8599C111.334 56.2992 111.334 56.1927 112.145 56.1927H114.44C115.182 56.1927 115.264 56.241 115.264 56.9373V61.9551C115.264 62.6416 115.182 62.69 114.316 62.69V62.9704H117.256V62.69C116.281 62.69 116.212 62.6416 116.212 61.936V56.8695C116.212 56.154 116.267 56.1153 117.256 56.1153V55.8349H109.411V56.1153C110.372 56.1153 110.524 56.1733 110.524 56.8695V59.1126H110.524ZM133.255 63.1155C136.003 63.1155 137.734 61.8779 137.734 59.4027C137.734 56.7341 135.714 55.69 133.255 55.69C131.139 55.69 128.775 56.4635 128.775 59.4027C128.775 61.7038 130.259 63.1155 133.255 63.1155ZM133.241 56.0381C134.189 56.0381 135.096 56.2991 135.728 56.7922C136.346 57.3143 136.731 58.136 136.731 59.4027C136.731 60.5049 136.374 61.4041 135.728 61.9938C135.151 62.4677 134.203 62.7578 133.255 62.7578C132.293 62.7578 131.358 62.4677 130.781 61.9938C130.122 61.4041 129.779 60.5049 129.779 59.4027C129.779 58.1361 130.149 57.3143 130.768 56.7922C131.414 56.2798 132.279 56.0381 133.241 56.0381H133.241ZM150.682 56.9373C150.682 56.2508 150.751 56.1927 151.548 56.1927H155.161C155.972 56.1927 156.013 56.2895 156.013 56.9373V61.9454C156.013 62.6416 155.972 62.69 155.024 62.69V62.9704H158.074V62.69C157.016 62.69 156.961 62.632 156.961 61.936V56.8599C156.961 56.1637 157.044 56.1153 158.074 56.1153V55.8349H148.635V56.1153C149.651 56.1153 149.734 56.154 149.734 56.8599V61.936C149.734 62.6416 149.679 62.69 148.635 62.69V62.9704H151.685V62.69C150.764 62.69 150.682 62.6416 150.682 61.9454V56.9373ZM175.171 60.6597L175.886 62.0422C175.968 62.2164 176.023 62.342 176.023 62.4387C176.023 62.632 175.817 62.6901 175.226 62.6901V62.9704H177.851V62.6901C177.329 62.6901 177.15 62.5933 176.848 62.0132L173.495 55.69H173.042L169.991 62.1486C169.771 62.603 169.62 62.69 169.085 62.69V62.9704H171.338V62.69C170.761 62.69 170.555 62.6416 170.555 62.4386C170.555 62.3323 170.609 62.1776 170.706 61.9648L171.283 60.6596H175.171L175.171 60.6597ZM174.979 60.2922H171.448L173.083 56.7244H173.138L174.979 60.2922ZM193.437 58.639L195.924 56.5892C196.432 56.1637 196.611 56.1154 197.188 56.1154V55.835H194.673V56.1154C195.127 56.1154 195.347 56.1541 195.347 56.2701C195.347 56.386 195.127 56.5892 194.728 56.9276L191.719 59.4607H191.678V56.8599C191.678 56.154 191.733 56.1153 192.695 56.1153V55.8349H189.631V56.1153C190.648 56.1153 190.73 56.154 190.73 56.8502V61.9454C190.73 62.6416 190.648 62.69 189.631 62.69V62.9704H192.75V62.69C191.747 62.69 191.678 62.6416 191.678 61.9454V60.0892L192.805 59.1416L196.047 62.9704H197.916V62.69C197.078 62.69 196.872 62.632 196.281 61.9648L193.437 58.6389L193.437 58.639ZM216.745 62.9704L217.239 61.4525H216.758C216.374 62.5449 216.236 62.6127 215.426 62.6127H212.568C212.279 62.6127 212.169 62.5546 212.169 62.1777V59.4318H214.34C214.972 59.4318 215.055 59.4898 215.055 60.4277H215.536V58.0783H215.055C215.055 58.9871 214.972 59.0643 214.354 59.0643H212.169V56.6667C212.169 56.2508 212.211 56.1928 212.691 56.1928H215.027C215.783 56.1928 215.92 56.2121 216.291 57.324H216.772L216.332 55.8351H210.108V56.1154C211.125 56.1154 211.221 56.1541 211.221 56.8503V61.9455C211.221 62.6417 211.125 62.6901 210.108 62.6901V62.9705H216.745V62.9704ZM234.268 56.1927H236.233C237.044 56.1927 237.126 56.2217 237.428 57.382H237.882L237.552 55.835H230.036L229.72 57.382H230.173C230.449 56.2411 230.544 56.1927 231.355 56.1927H233.32V61.9551C233.32 62.6416 233.265 62.69 232.001 62.69V62.9704H235.601V62.69C234.337 62.69 234.268 62.6416 234.268 61.9551V56.1927ZM250.266 59.0546V56.8695C250.266 56.1733 250.362 56.1153 251.448 56.1153V55.8349H248.219V56.1153C249.222 56.1153 249.318 56.1733 249.318 56.8018V61.936C249.318 62.6416 249.236 62.69 248.219 62.69V62.9704H252.245C255.075 62.9704 255.543 61.7134 255.543 60.9497C255.543 59.9538 254.443 59.0546 251.572 59.0546H250.266ZM257.398 61.9551C257.398 62.6416 257.342 62.69 256.188 62.69V62.9704H259.555V62.69C258.414 62.69 258.346 62.6416 258.346 61.9551V56.8599C258.346 56.154 258.414 56.1153 259.555 56.1153V55.8349H256.202V56.1153C257.342 56.1153 257.397 56.154 257.397 56.8599V61.9551H257.398ZM250.266 59.4123H251.737C253.962 59.4123 254.553 60.2342 254.553 60.94C254.553 62.0809 253.743 62.6126 252.176 62.6126H250.775C250.349 62.6126 250.266 62.5352 250.266 62.1196V59.4124V59.4123Z" fill="url(#paint0_linear_1_1148)" stroke="#264796" stroke-width="0.189137" stroke-miterlimit="22.9256"/>
<path fill-rule="evenodd" clip-rule="evenodd" d="M90.1982 56.8507V61.9461C90.1982 62.6423 90.1158 62.6907 89.099 62.6907V62.971H92.2181V62.6907C91.215 62.6907 91.1463 62.6423 91.1463 61.9461V60.0897L92.2731 59.1422L95.5158 62.971H97.3846V62.6906C96.5464 62.6906 96.3403 62.6326 95.7494 61.9654L92.9051 58.6394L95.3922 56.5896C95.9006 56.1642 96.0792 56.1159 96.6563 56.1159V55.8354H94.1418V56.1159C94.5953 56.1159 94.8151 56.1545 94.8151 56.2705C94.8151 56.3866 94.5953 56.5896 94.1968 56.928L91.1876 59.4612H91.1464V56.8603C91.1464 56.1545 91.2013 56.1159 92.1632 56.1159V55.8355H89.099V56.1159C90.1158 56.1159 90.1983 56.1545 90.1983 56.8507H90.1982Z" fill="#07628F" stroke="#FEFEFE" stroke-width="0.189137" stroke-miterlimit="22.9256"/>
<path fill-rule="evenodd" clip-rule="evenodd" d="M128.777 59.4027C128.777 61.7039 130.261 63.1155 133.256 63.1155C136.004 63.1155 137.736 61.8779 137.736 59.4027C137.736 56.7341 135.716 55.6899 133.256 55.6899C131.14 55.6899 128.777 56.4635 128.777 59.4027ZM129.78 59.4027C129.78 58.1361 130.151 57.3143 130.769 56.7922C131.415 56.2797 132.281 56.038 133.242 56.038C134.191 56.038 135.097 56.299 135.729 56.7922C136.348 57.3143 136.733 58.1361 136.733 59.4027C136.733 60.505 136.375 61.4042 135.729 61.994C135.152 62.4678 134.204 62.7578 133.256 62.7578C132.294 62.7578 131.36 62.4678 130.783 61.994C130.123 61.4042 129.78 60.505 129.78 59.4027H129.78Z" fill="#07628F" stroke="#FEFEFE" stroke-width="0.189137" stroke-miterlimit="22.9256"/>
<path fill-rule="evenodd" clip-rule="evenodd" d="M149.735 56.8603V61.9364C149.735 62.6422 149.68 62.6906 148.636 62.6906V62.971H151.687V62.6906C150.766 62.6906 150.683 62.6422 150.683 61.9461V56.9376C150.683 56.2512 150.752 56.1932 151.549 56.1932H155.163C155.974 56.1932 156.015 56.2899 156.015 56.9376V61.9461C156.015 62.6422 155.974 62.6906 155.025 62.6906V62.971H158.076V62.6906C157.018 62.6906 156.963 62.6326 156.963 61.9364V59.633V56.8603C156.963 56.1641 157.045 56.1159 158.076 56.1159V55.8354H148.636V56.1159C149.653 56.1159 149.735 56.1545 149.735 56.8603L149.735 56.8603Z" fill="#07628F" stroke="#FEFEFE" stroke-width="0.189137" stroke-miterlimit="22.9256"/>
<path fill-rule="evenodd" clip-rule="evenodd" d="M173.044 55.69L169.993 62.1487C169.774 62.6032 169.622 62.6901 169.086 62.6901V62.9705H171.34V62.6901C170.763 62.6901 170.557 62.6418 170.557 62.4387C170.557 62.3324 170.612 62.1777 170.708 61.965L171.285 60.6597H175.174L175.888 62.0423C175.971 62.2164 176.025 62.3421 176.025 62.4387C176.025 62.6321 175.819 62.6901 175.229 62.6901V62.9705H177.853V62.6901C177.331 62.6901 177.152 62.5935 176.85 62.0133L173.497 55.6899H173.044V55.69ZM171.45 60.2923L173.085 56.7245H173.14L174.981 60.2923H171.45Z" fill="#07628F" stroke="#FEFEFE" stroke-width="0.189137" stroke-miterlimit="22.9256"/>
<path fill-rule="evenodd" clip-rule="evenodd" d="M190.732 56.8507V61.9461C190.732 62.6423 190.65 62.6907 189.633 62.6907V62.971H192.752V62.6907C191.749 62.6907 191.68 62.6423 191.68 61.9461V60.0897L192.807 59.1422L196.05 62.971H197.918V62.6906C197.08 62.6906 196.874 62.6326 196.283 61.9654L193.439 58.6394L195.926 56.5896C196.435 56.1642 196.613 56.1159 197.19 56.1159V55.8354H194.676V56.1159C195.129 56.1159 195.349 56.1545 195.349 56.2705C195.349 56.3866 195.129 56.5896 194.731 56.928L191.722 59.4612H191.68V56.8603C191.68 56.1545 191.735 56.1159 192.697 56.1159V55.8355H189.633V56.1159C190.65 56.1159 190.732 56.1545 190.732 56.8507H190.732Z" fill="#07628F" stroke="#FEFEFE" stroke-width="0.189137" stroke-miterlimit="22.9256"/>
<path fill-rule="evenodd" clip-rule="evenodd" d="M211.224 56.8506V61.946C211.224 62.6422 211.127 62.6905 210.111 62.6905V62.9709H216.747L217.242 61.4529H216.761C216.376 62.5455 216.239 62.6132 215.428 62.6132H212.57C212.282 62.6132 212.172 62.5552 212.172 62.1781V59.4322H214.343C214.975 59.4322 215.057 59.4902 215.057 60.4281H215.538V58.0786H215.057C215.057 58.9874 214.975 59.0648 214.356 59.0648H212.172V56.667C212.172 56.2512 212.213 56.1932 212.694 56.1932H215.03C215.785 56.1932 215.923 56.2125 216.294 57.3244H216.775L216.335 55.8354H210.111V56.1159C211.127 56.1159 211.224 56.1545 211.224 56.8506V56.8506Z" fill="#07628F" stroke="#FEFEFE" stroke-width="0.189137" stroke-miterlimit="22.9256"/>
<path fill-rule="evenodd" clip-rule="evenodd" d="M71.4243 62.1781V59.4322H73.5953C74.2274 59.4322 74.3098 59.4902 74.3098 60.4281H74.7907V58.0786H74.3098C74.3098 58.9874 74.2274 59.0648 73.6091 59.0648H71.4243V56.667C71.4243 56.2512 71.4655 56.1932 71.9465 56.1932H74.2824C75.0381 56.1932 75.1755 56.2125 75.5465 57.3244H76.0274L75.5878 55.8354H69.3633V56.1159C70.3801 56.1159 70.4762 56.1545 70.4762 56.8506V61.9461C70.4762 62.6422 70.3801 62.6906 69.3633 62.6906V62.971H76L76.4946 61.453H76.0137C75.629 62.5455 75.4915 62.6132 74.6808 62.6132H71.8228C71.5342 62.6132 71.4243 62.5552 71.4243 62.1782V62.1781Z" fill="#07628F" stroke="#FEFEFE" stroke-width="0.189137" stroke-miterlimit="22.9256"/>
<path fill-rule="evenodd" clip-rule="evenodd" d="M53.3099 61.9558V56.1932H55.2748C56.0855 56.1932 56.168 56.2222 56.4702 57.3824H56.9236L56.5939 55.8354H49.0777L48.7617 57.3824H49.2152C49.49 56.2415 49.5862 56.1932 50.3969 56.1932H52.3618V61.9558C52.3618 62.6422 52.3068 62.6906 51.0427 62.6906V62.971H54.6427V62.6906C53.3785 62.6906 53.3099 62.6422 53.3099 61.9558H53.3099Z" fill="#07628F" stroke="#FEFEFE" stroke-width="0.189137" stroke-miterlimit="22.9256"/>
<path fill-rule="evenodd" clip-rule="evenodd" d="M32.9695 62.7289C31.3756 62.7289 29.6993 61.762 29.6993 59.3157C29.6993 57.2273 31.0047 56.038 33.1207 56.038C34.9482 56.038 35.0856 56.5312 35.4291 57.6623L35.8963 57.5947C35.7451 57.1015 35.6352 56.5698 35.539 56.0283C35.0031 55.8737 34.0825 55.6899 33.1207 55.6899C30.4276 55.6899 28.71 56.9662 28.71 59.3254C28.71 62.3711 31.0733 63.1155 32.8596 63.1155C34.2612 63.1155 35.539 62.6031 36.2673 61.1914L35.7864 61.0851C35.3192 61.9746 34.481 62.7288 32.9695 62.7288V62.7289Z" fill="#07628F" stroke="#FEFEFE" stroke-width="0.189137" stroke-miterlimit="22.9256"/>
<path fill-rule="evenodd" clip-rule="evenodd" d="M233.323 56.1932V61.9558C233.323 62.6422 233.268 62.6906 232.004 62.6906V62.971H235.604V62.6906C234.34 62.6906 234.271 62.6422 234.271 61.9558V56.1932H236.236C237.046 56.1932 237.129 56.2222 237.431 57.3824H237.885L237.555 55.8354H230.039L229.723 57.3824H230.176C230.451 56.2415 230.547 56.1932 231.358 56.1932H233.323H233.323Z" fill="#07628F" stroke="#FEFEFE" stroke-width="0.189137" stroke-miterlimit="22.9256"/>
<path fill-rule="evenodd" clip-rule="evenodd" d="M249.321 56.8023V61.9364C249.321 62.6422 249.239 62.6906 248.222 62.6906V62.971H252.248C255.078 62.971 255.546 61.714 255.546 60.9502C255.546 59.9543 254.446 59.0552 251.575 59.0552H250.269V56.87C250.269 56.1738 250.366 56.1159 251.451 56.1159V55.8354H248.222V56.1159C249.225 56.1159 249.321 56.1738 249.321 56.8023H249.321ZM250.269 62.1201V59.4129H251.74C253.966 59.4129 254.556 60.2348 254.556 60.9406C254.556 62.0815 253.746 62.6132 252.179 62.6132H250.778C250.352 62.6132 250.269 62.5359 250.269 62.1202L250.269 62.1201Z" fill="#07628F" stroke="#FEFEFE" stroke-width="0.189137" stroke-miterlimit="22.9256"/>
<path fill-rule="evenodd" clip-rule="evenodd" d="M257.401 56.8603V61.9557C257.401 62.6422 257.346 62.6905 256.191 62.6905V62.9709H259.558V62.6905C258.418 62.6905 258.349 62.6422 258.349 61.9557V56.8603C258.349 56.1545 258.417 56.1159 259.558 56.1159V55.8354H256.205V56.1159C257.346 56.1159 257.401 56.1545 257.401 56.8603H257.401Z" fill="#07628F" stroke="#FEFEFE" stroke-width="0.189137" stroke-miterlimit="22.9256"/>
<path fill-rule="evenodd" clip-rule="evenodd" d="M32.9696 62.7291C31.3756 62.7291 29.6994 61.7622 29.6994 59.3162C29.6994 57.2276 31.0046 56.0383 33.1208 56.0383C34.9482 56.0383 35.0856 56.5315 35.4291 57.6627L35.8964 57.595C35.7452 57.102 35.6353 56.5703 35.539 56.0286C35.0031 55.874 34.0825 55.6904 33.1208 55.6904C30.4275 55.6904 28.71 56.9665 28.71 59.3257C28.71 62.3714 31.0733 63.1159 32.8597 63.1159C34.2611 63.1159 35.539 62.6036 36.2673 61.1918L35.7865 61.0856C35.3192 61.9751 34.481 62.7292 32.9696 62.7292V62.7291Z" fill="#07628F" stroke="#FEFEFE" stroke-width="0.189137" stroke-miterlimit="22.9256"/>
<path fill-rule="evenodd" clip-rule="evenodd" d="M50.3969 56.1932H52.3619V61.9558C52.3619 62.6423 52.3069 62.6905 51.0428 62.6905V62.9709H54.6427V62.6905C53.3786 62.6905 53.31 62.6423 53.31 61.9558V56.1932H55.2748C56.0856 56.1932 56.1679 56.2222 56.4702 57.3824H56.9236L56.5939 55.8354H49.0777L48.7618 57.3824H49.2152C49.4899 56.2416 49.5862 56.1932 50.3968 56.1932H50.3969Z" fill="#07628F" stroke="#FEFEFE" stroke-width="0.189137" stroke-miterlimit="22.9256"/>
<path fill-rule="evenodd" clip-rule="evenodd" d="M50.3969 56.1932H52.3619V61.9558C52.3619 62.6423 52.3069 62.6905 51.0428 62.6905V62.9709H54.6427V62.6905C53.3786 62.6905 53.31 62.6423 53.31 61.9558V56.1932H55.2748C56.0856 56.1932 56.1679 56.2222 56.4702 57.3824H56.9236L56.5939 55.8354H49.0777L48.7618 57.3824H49.2152C49.4899 56.2416 49.5862 56.1932 50.3968 56.1932H50.3969Z" fill="#07628F" stroke="#FEFEFE" stroke-width="0.189137" stroke-miterlimit="22.9256"/>
<path fill-rule="evenodd" clip-rule="evenodd" d="M70.4762 61.9461C70.4762 62.6423 70.3799 62.6905 69.3633 62.6905V62.9708H76L76.4946 61.4529H76.0136C75.629 62.5456 75.4914 62.6133 74.6808 62.6133H71.8227C71.5342 62.6133 71.4244 62.5552 71.4244 62.1781V59.4322H73.5953C74.2274 59.4322 74.3098 59.4902 74.3098 60.4281H74.7907V58.0787H74.3098C74.3098 58.9875 74.2273 59.0647 73.609 59.0647H71.4244V56.6669C71.4244 56.2513 71.4656 56.1932 71.9465 56.1932H74.2824C75.038 56.1932 75.1756 56.2125 75.5465 57.3244H76.0274L75.5878 55.8354H69.3633V56.1158C70.3799 56.1158 70.4762 56.1545 70.4762 56.8507V61.9461Z" fill="#07628F" stroke="#FEFEFE" stroke-width="0.189137" stroke-miterlimit="22.9256"/>
<path fill-rule="evenodd" clip-rule="evenodd" d="M70.4766 56.8494V61.946C70.4766 62.6428 70.3797 62.6891 69.3636 62.6891V62.9709H76.0001L76.4951 61.4519H76.0138C75.6285 62.5456 75.4904 62.6126 74.6804 62.6126H71.8237C71.5346 62.6126 71.4248 62.5559 71.4248 62.1771V59.4328H73.5958C74.2273 59.4328 74.3105 59.4904 74.3105 60.4278H74.7911V58.0779H74.3105C74.3105 58.9869 74.2273 59.0642 73.6095 59.0642H71.4248V56.6671C71.4248 56.2496 71.4652 56.1929 71.9473 56.1929H74.2822C75.0373 56.1929 75.1755 56.2109 75.5461 57.3235H76.0283L75.5874 55.8354H69.3636V56.1164C70.3797 56.1164 70.4766 56.1542 70.4766 56.8493V56.8494Z" fill="#07628F" stroke="#07628F" stroke-width="0.377927" stroke-miterlimit="22.9256"/>
<path fill-rule="evenodd" clip-rule="evenodd" d="M53.3101 61.9566V56.1933H55.2751C56.0852 56.1933 56.1684 56.2216 56.4705 57.3816H56.9235L56.5932 55.8359H49.0781L48.7623 57.3816H49.2146C49.49 56.2414 49.5869 56.1933 50.397 56.1933H52.3612V61.9566C52.3612 62.6431 52.3062 62.6895 51.0431 62.6895V62.9713H54.6435V62.6895C53.378 62.6895 53.3101 62.6431 53.3101 61.9566Z" fill="#07628F" stroke="#07628F" stroke-width="0.377927" stroke-miterlimit="22.9256"/>
<path fill-rule="evenodd" clip-rule="evenodd" d="M35.8958 57.5952C35.7456 57.1012 35.6365 56.5702 35.5388 56.029C35.0042 55.8743 34.0835 55.6904 33.1207 55.6904C30.4273 55.6904 28.7102 56.9655 28.7102 59.3264C28.7102 62.3714 31.0734 63.1154 32.8607 63.1154C34.2611 63.1154 35.5388 62.6033 36.2665 61.1909L35.7868 61.086C35.3184 61.9735 34.4816 62.7279 32.9697 62.7279C31.3763 62.7279 29.6988 61.7613 29.6988 59.3153C29.6988 57.2266 31.0056 56.0375 33.1208 56.0375C34.9477 56.0375 35.0858 56.5307 35.4282 57.6622L35.8959 57.5952L35.8958 57.5952Z" fill="#07628F" stroke="#07628F" stroke-width="0.377927" stroke-miterlimit="22.9256"/>
<path fill-rule="evenodd" clip-rule="evenodd" d="M133.256 55.6904C131.139 55.6904 128.776 56.4637 128.776 59.4029C128.776 61.7038 130.26 63.1154 133.256 63.1154C136.005 63.1154 137.736 61.8782 137.736 59.4029C137.736 56.7343 135.716 55.6904 133.256 55.6904ZM129.78 59.4029C129.78 58.1357 130.15 57.3151 130.77 56.7928C131.415 56.279 132.281 56.0375 133.243 56.0375C134.191 56.0375 135.098 56.3004 135.73 56.7928C136.347 57.3151 136.732 58.1357 136.732 59.4029C136.732 60.5052 136.376 61.4057 135.73 61.9951C135.152 62.4667 134.203 62.758 133.256 62.758C132.294 62.758 131.36 62.4667 130.782 61.9951C130.123 61.4056 129.78 60.5052 129.78 59.4029H129.78Z" fill="#07628F" stroke="#07628F" stroke-width="0.377927" stroke-miterlimit="22.9256"/>
<path fill-rule="evenodd" clip-rule="evenodd" d="M97.384 62.6895C96.5464 62.6895 96.3405 62.6336 95.7493 61.9652L92.9047 58.6403L95.3907 56.5903C95.9003 56.1641 96.0796 56.1169 96.6563 56.1169V55.8359H94.1421V56.1169C94.5952 56.1169 94.8148 56.1546 94.8148 56.2707C94.8148 56.3875 94.5952 56.5903 94.197 56.928L91.1869 59.4608H91.1465V56.8601C91.1465 56.1547 91.2015 56.1169 92.1633 56.1169V55.836H89.0999V56.1169C90.1151 56.1169 90.1992 56.1547 90.1992 56.8498V61.9464C90.1992 62.6432 90.1152 62.6896 89.0999 62.6896V62.9713H92.2183V62.6896C91.216 62.6896 91.1465 62.6431 91.1465 61.9464V60.0897L92.2732 59.1421L95.5167 62.9714H97.384V62.6896V62.6895Z" fill="#07628F" stroke="#07628F" stroke-width="0.377927" stroke-miterlimit="22.9256"/>
<path fill-rule="evenodd" clip-rule="evenodd" d="M211.223 56.8494V61.946C211.223 62.6428 211.127 62.6891 210.111 62.6891V62.9709H216.748L217.242 61.4519H216.762C216.376 62.5456 216.239 62.6126 215.427 62.6126H212.57C212.281 62.6126 212.17 62.5559 212.17 62.1771V59.4328H214.343C214.974 59.4328 215.057 59.4904 215.057 60.4278H215.538V58.0779H215.057C215.057 58.9869 214.974 59.0642 214.357 59.0642H212.17V56.6671C212.17 56.2496 212.214 56.1929 212.694 56.1929H215.03C215.786 56.1929 215.923 56.2109 216.295 57.3235H216.776L216.335 55.8354H210.111V56.1164C211.127 56.1164 211.223 56.1542 211.223 56.8493L211.223 56.8494Z" fill="#07628F" stroke="#07628F" stroke-width="0.377927" stroke-miterlimit="22.9256"/>
<path fill-rule="evenodd" clip-rule="evenodd" d="M233.323 56.1933V61.9566C233.323 62.6431 233.267 62.6895 232.004 62.6895V62.9713H235.602V62.6895C234.339 62.6895 234.271 62.6431 234.271 61.9566V56.1933H236.237C237.046 56.1933 237.13 56.2216 237.432 57.3816H237.885L237.554 55.8359H230.039L229.723 57.3816H230.176C230.451 56.2414 230.548 56.1933 231.358 56.1933H233.323H233.323Z" fill="#07628F" stroke="#07628F" stroke-width="0.377927" stroke-miterlimit="22.9256"/>
<path fill-rule="evenodd" clip-rule="evenodd" d="M191.68 61.9463V60.0896L192.807 59.142L196.05 62.9713H197.918V62.6895C197.08 62.6895 196.875 62.6336 196.283 61.9652L193.439 58.6403L195.927 56.5903C196.435 56.1641 196.613 56.1169 197.19 56.1169V55.8359H194.677V56.1169C195.129 56.1169 195.349 56.1546 195.349 56.2707C195.349 56.3875 195.129 56.5903 194.732 56.928L191.722 59.4608H191.68V56.8601C191.68 56.1547 191.734 56.1169 192.696 56.1169V55.836H189.633V56.1169C190.649 56.1169 190.733 56.1547 190.733 56.8498V61.9464C190.733 62.6432 190.649 62.6896 189.633 62.6896V62.9713H192.754V62.6896C191.748 62.6896 191.68 62.6431 191.68 61.9464V61.9463Z" fill="#07628F" stroke="#07628F" stroke-width="0.377927" stroke-miterlimit="22.9256"/>
<path fill-rule="evenodd" clip-rule="evenodd" d="M176.85 62.0131L173.496 55.6904H173.043L169.993 62.1488C169.774 62.6033 169.623 62.6893 169.086 62.6893V62.971H171.341V62.6893C170.764 62.6893 170.556 62.6428 170.556 62.4392C170.556 62.3336 170.611 62.1772 170.708 61.9649L171.285 60.6607H175.174L175.889 62.0423C175.971 62.2166 176.025 62.3421 176.025 62.4392C176.025 62.6334 175.819 62.6893 175.229 62.6893V62.971H177.853V62.6893C177.33 62.6893 177.152 62.5948 176.85 62.0131ZM173.14 56.724L174.981 60.293H171.45L173.087 56.724H173.14H173.14Z" fill="#07628F" stroke="#07628F" stroke-width="0.377927" stroke-miterlimit="22.9256"/>
<path fill-rule="evenodd" clip-rule="evenodd" d="M156.962 61.9352L156.963 56.86C156.963 56.1641 157.045 56.1169 158.075 56.1169V55.8359H148.634V56.1169C149.654 56.1169 149.736 56.1546 149.736 56.86V61.9352C149.736 62.6431 149.68 62.6895 148.634 62.6895V62.9713H151.687V62.6895C150.766 62.6895 150.683 62.6431 150.683 61.9463V56.9383C150.683 56.2501 150.753 56.1934 151.548 56.1934H155.164C155.974 56.1934 156.014 56.2896 156.014 56.9383V61.9463C156.014 62.6431 155.974 62.6895 155.026 62.6895V62.9713H158.075V62.6895C157.018 62.6895 156.963 62.6336 156.962 61.9352H156.962Z" fill="#07628F" stroke="#07628F" stroke-width="0.377927" stroke-miterlimit="22.9256"/>
<path fill-rule="evenodd" clip-rule="evenodd" d="M257.4 56.86V61.9566C257.4 62.6431 257.345 62.6895 256.192 62.6895V62.9713H259.559V62.6895C258.417 62.6895 258.349 62.6431 258.349 61.9566V56.86C258.349 56.1546 258.417 56.1169 259.559 56.1169V55.8359H256.206V56.1169C257.345 56.1169 257.4 56.1546 257.4 56.86Z" fill="#07628F" stroke="#07628F" stroke-width="0.377927" stroke-miterlimit="22.9256"/>
<path fill-rule="evenodd" clip-rule="evenodd" d="M250.271 62.1199V59.4135H251.741C253.966 59.4135 254.557 60.2358 254.557 60.9403C254.557 62.0813 253.746 62.6131 252.179 62.6131H250.777C250.351 62.6131 250.271 62.5358 250.271 62.1199H250.271ZM255.545 60.9506C255.545 59.9539 254.446 59.0561 251.576 59.0561H250.271V56.8704C250.271 56.1727 250.365 56.1169 251.451 56.1169V55.8359H248.221V56.1169C249.225 56.1169 249.321 56.1727 249.321 56.8025V61.9352C249.321 62.6431 249.239 62.6896 248.221 62.6896V62.9713H252.247C255.078 62.9713 255.545 61.7144 255.545 60.9506H255.545Z" fill="#07628F" stroke="#07628F" stroke-width="0.377927" stroke-miterlimit="22.9256"/>
<path fill-rule="evenodd" clip-rule="evenodd" d="M109.703 63.3873C110.767 63.3873 111.563 61.5436 111.563 59.2957V57.0084C111.55 56.4364 111.55 56.3281 112.334 56.3281H114.553C115.271 56.3281 115.35 56.3772 115.35 57.0873V62.2043C115.35 62.9043 115.271 62.9535 114.433 62.9535V63.2393H117.277V62.9535C116.333 62.9535 116.267 62.9043 116.267 62.1846V57.0182C116.267 56.2886 116.32 56.2492 117.277 56.2492V55.9634H109.69V56.2492C110.62 56.2492 110.767 56.3084 110.767 57.0182C110.767 57.6434 110.801 58.4596 110.765 59.2856V59.3055C110.765 59.3939 110.761 60.1642 110.55 60.9674C110.377 61.6653 110.079 62.261 109.57 62.6085C109.358 62.7366 109.172 62.8944 109.172 63.1113C109.172 63.3183 109.424 63.3874 109.703 63.3874L109.703 63.3873Z" fill="#07628F" stroke="#07628F" stroke-width="0.377927" stroke-miterlimit="22.9256"/>
<defs>
<linearGradient id="paint0_linear_1_1148" x1="138.84" y1="60.2318" x2="133.91" y2="60.1309" gradientUnits="userSpaceOnUse">
<stop stop-color="#86776F"/>
<stop offset="1" stop-color="#FEFEFE"/>
</linearGradient>
</defs>
</svg>
