<svg width="18" height="18" viewBox="0 0 18 18" fill="none" xmlns="http://www.w3.org/2000/svg">
<path d="M9.10087 15.7473C12.7716 15.7473 15.7473 12.7716 15.7473 9.10093C15.7473 5.43027 12.7716 2.45459 9.10087 2.45459C5.43021 2.45459 2.45453 5.43027 2.45453 9.10093C2.45453 12.7716 5.43021 15.7473 9.10087 15.7473Z" fill="#EEAC03"/>
<path d="M9.10089 14.2704C11.9558 14.2704 14.2703 11.956 14.2703 9.10101C14.2703 6.24606 11.9558 3.93164 9.10089 3.93164C6.24594 3.93164 3.93152 6.24606 3.93152 9.10101C3.93152 11.956 6.24594 14.2704 9.10089 14.2704Z" fill="#07628F"/>
<path d="M9.10101 9.83936V4.66992" stroke="#EEAC03" stroke-width="0.812334" stroke-linecap="round"/>
<path d="M9.10101 9.83948L12.0549 7.62402" stroke="#EEAC03" stroke-width="0.812334" stroke-linecap="round"/>
</svg>
