<svg width="18" height="18" viewBox="0 0 18 18" fill="none" xmlns="http://www.w3.org/2000/svg">
<path d="M9.10088 15.7473C12.7716 15.7473 15.7473 12.7716 15.7473 9.10093C15.7473 5.43027 12.7716 2.45459 9.10088 2.45459C5.43022 2.45459 2.45454 5.43027 2.45454 9.10093C2.45454 12.7716 5.43022 15.7473 9.10088 15.7473Z" fill="#07628F"/>
<path d="M9.10088 14.2704C11.9558 14.2704 14.2703 11.956 14.2703 9.10101C14.2703 6.24606 11.9558 3.93164 9.10088 3.93164C6.24593 3.93164 3.93151 6.24606 3.93151 9.10101C3.93151 11.956 6.24593 14.2704 9.10088 14.2704Z" fill="white"/>
<path d="M9.10104 9.83936V4.66992" stroke="black" stroke-width="0.812334" stroke-linecap="round"/>
<path d="M9.10104 9.83948L12.0549 7.62402" stroke="black" stroke-width="0.812334" stroke-linecap="round"/>
</svg>
