<svg width="18" height="18" viewBox="0 0 18 18" fill="none" xmlns="http://www.w3.org/2000/svg">
<mask id="mask0_114_35" style="mask-type:luminance" maskUnits="userSpaceOnUse" x="0" y="0" width="18" height="18">
<path d="M17.7489 0.818359H0.81818V17.7491H17.7489V0.818359Z" fill="white"/>
</mask>
<g mask="url(#mask0_114_35)">
<path d="M16.3379 12.7544V14.8707C16.3387 15.0672 16.2985 15.2616 16.2198 15.4417C16.1411 15.6217 16.0257 15.7832 15.8808 15.916C15.7361 16.0489 15.5652 16.15 15.3791 16.2129C15.193 16.2758 14.9957 16.2992 14.8001 16.2816C12.6293 16.0457 10.5442 15.3039 8.71208 14.1158C7.00759 13.0327 5.56248 11.5876 4.47938 9.8832C3.28716 8.04281 2.54521 5.94749 2.31365 3.76694C2.29602 3.57186 2.31922 3.37525 2.38173 3.18963C2.44425 3.00399 2.54473 2.83341 2.67679 2.68875C2.80885 2.54409 2.96958 2.4285 3.14875 2.34936C3.32794 2.27022 3.52162 2.22925 3.7175 2.22907H5.83384C6.1762 2.2257 6.50809 2.34693 6.76769 2.57017C7.02726 2.79342 7.19682 3.10344 7.24474 3.44244C7.33406 4.11972 7.49971 4.78471 7.73855 5.42474C7.83347 5.67725 7.854 5.95166 7.79774 6.21547C7.74148 6.47929 7.61077 6.72144 7.42109 6.91324L6.52518 7.80917C7.52943 9.57524 8.99173 11.0376 10.7579 12.0418L11.6538 11.1459C11.8456 10.9562 12.0877 10.8255 12.3515 10.7692C12.6154 10.713 12.8898 10.7335 13.1423 10.8284C13.7824 11.0673 14.4473 11.233 15.1246 11.3222C15.4672 11.3707 15.7803 11.5432 16.0039 11.8072C16.2277 12.0713 16.3465 12.4084 16.3379 12.7544Z" fill="white" stroke="#07628F" stroke-width="1.62467" stroke-linecap="round" stroke-linejoin="round"/>
</g>
</svg>
