<svg width="34" height="33" viewBox="0 0 34 33" fill="none" xmlns="http://www.w3.org/2000/svg">
<circle cx="17.1282" cy="16.2313" r="16.2313" fill="#07628F"/>
<path d="M26.4735 21.5636V24.5147C26.4746 24.7887 26.4185 25.0599 26.3087 25.3109C26.199 25.5619 26.038 25.7872 25.8361 25.9724C25.6343 26.1577 25.3959 26.2987 25.1364 26.3864C24.8769 26.4742 24.6019 26.5068 24.329 26.4821C21.302 26.1532 18.3943 25.1189 15.8396 23.4621C13.4627 21.9518 11.4476 19.9367 9.93729 17.5599C8.27479 14.9936 7.24018 12.0717 6.91729 9.03106C6.8927 8.75904 6.92503 8.48487 7.01221 8.22602C7.0994 7.96717 7.23952 7.72931 7.42367 7.52758C7.60781 7.32585 7.83195 7.16467 8.0818 7.05431C8.33165 6.94395 8.60174 6.88683 8.87488 6.88657H11.826C12.3034 6.88187 12.7662 7.05093 13.1282 7.36223C13.4902 7.67353 13.7266 8.10583 13.7934 8.57856C13.918 9.52299 14.149 10.4503 14.482 11.3428C14.6144 11.6949 14.643 12.0775 14.5646 12.4454C14.4861 12.8133 14.3039 13.151 14.0394 13.4184L12.7901 14.6677C14.1904 17.1305 16.2296 19.1697 18.6923 20.57L19.9417 19.3207C20.2091 19.0562 20.5468 18.874 20.9147 18.7955C21.2825 18.717 21.6652 18.7457 22.0173 18.878C22.9098 19.2111 23.8371 19.4421 24.7815 19.5666C25.2594 19.634 25.6958 19.8747 26.0078 20.2429C26.3197 20.6111 26.4855 21.0811 26.4735 21.5636Z" fill="white"/>
<path d="M17.62 9.25635C17.62 9.25635 20.4594 9.66631 22.2663 11.5795C24.0731 13.4927 24.1248 15.7611 24.1248 15.7611" stroke="white" stroke-width="1.85851" stroke-linecap="round"/>
<path d="M17.9479 5.23169C17.9479 5.23169 22.1012 5.23147 25.054 7.86246C28.0067 10.4934 28.771 14.8319 28.771 14.8319" stroke="white" stroke-width="1.85851" stroke-linecap="round"/>
</svg>
