<svg width="117" height="117" viewBox="0 0 117 117" fill="none" xmlns="http://www.w3.org/2000/svg">
<g filter="url(#filter0_d_121_22)">
<circle cx="60.5" cy="58.5" r="48.5" fill="#D9D9D9" fill-opacity="0.6" shape-rendering="crispEdges"/>
</g>
<circle cx="62.9782" cy="58.8539" r="45.3139" fill="url(#paint0_radial_121_22)"/>
<path d="M35.0314 45.1326C34.5909 45.1326 34.1965 45.2196 33.8482 45.3938C33.5102 45.5679 33.2234 45.8189 32.9878 46.1467C32.7522 46.4643 32.5729 46.8535 32.45 47.3145C32.3373 47.7755 32.2809 48.2928 32.2809 48.8665C32.2809 49.645 32.3731 50.3108 32.5575 50.864C32.7522 51.4069 33.0544 51.8218 33.4641 52.1086C33.8739 52.3954 34.3963 52.5389 35.0314 52.5389C35.4821 52.5389 35.9277 52.4876 36.3682 52.3852C36.819 52.2828 37.3055 52.1394 37.828 51.955V53.9064C37.3465 54.101 36.8702 54.2445 36.399 54.3367C35.9277 54.4288 35.4002 54.4749 34.8163 54.4749C33.6895 54.4749 32.7573 54.2445 32.0197 53.7835C31.2924 53.3123 30.7546 52.6567 30.4063 51.8167C30.058 50.9664 29.8839 49.9779 29.8839 48.8511C29.8839 48.0213 29.9966 47.2633 30.2219 46.577C30.4473 45.8804 30.7751 45.2811 31.2053 44.7792C31.6458 44.2772 32.1836 43.888 32.8187 43.6114C33.4641 43.3348 34.2017 43.1965 35.0314 43.1965C35.5743 43.1965 36.1173 43.2682 36.6602 43.4116C37.2133 43.5448 37.7409 43.7292 38.2429 43.9648L37.4899 45.8548C37.0802 45.6601 36.6653 45.4911 36.2453 45.3477C35.8356 45.2043 35.4309 45.1326 35.0314 45.1326ZM44.3848 54.3213H42.0646V45.2862H39.0836V43.3502H47.3658V45.2862H44.3848V54.3213ZM54.692 54.3213L53.893 51.7091H49.8979L49.0989 54.3213H46.5942L50.4664 43.3041H53.3091L57.1966 54.3213H54.692ZM52.5408 47.207C52.4896 47.0328 52.423 46.8126 52.341 46.5462C52.2591 46.2799 52.1771 46.0084 52.0952 45.7318C52.0132 45.4553 51.9466 45.2145 51.8954 45.0097C51.8442 45.2145 51.7725 45.4706 51.6803 45.7779C51.5984 46.075 51.5164 46.3618 51.4345 46.6384C51.3628 46.9048 51.3064 47.0943 51.2654 47.207L50.4818 49.7577H53.3398L52.5408 47.207ZM61.7313 54.3213H59.4111V45.2862H56.4301V43.3502H64.7123V45.2862H61.7313V54.3213ZM66.4041 54.3213V43.3502H68.7243V47.5604H69.6462C70.6808 47.5604 71.526 47.7038 72.1816 47.9906C72.8474 48.2774 73.3391 48.6718 73.6567 49.1738C73.9742 49.6757 74.133 50.2494 74.133 50.8947C74.133 51.6118 73.9742 52.2264 73.6567 52.7386C73.3391 53.2508 72.8474 53.6452 72.1816 53.9218C71.5157 54.1881 70.6552 54.3213 69.6001 54.3213H66.4041ZM69.5079 52.4159C70.2148 52.4159 70.7679 52.3033 71.1674 52.0779C71.5772 51.8525 71.7821 51.4581 71.7821 50.8947C71.7821 50.5055 71.6796 50.2084 71.4747 50.0035C71.2801 49.7986 70.9984 49.6603 70.6296 49.5886C70.2711 49.5067 69.8357 49.4657 69.3235 49.4657H68.7243V52.4159H69.5079ZM76.2027 43.3502H78.2925V48.6513C78.2925 48.9074 78.2873 49.1943 78.2771 49.5118C78.2668 49.8294 78.2566 50.1418 78.2464 50.4491C78.2361 50.7462 78.2259 51.0074 78.2156 51.2328C78.2054 51.4479 78.1951 51.5964 78.1849 51.6784H78.231L83.3017 43.3502H86.0829V54.3213H84.0085V49.0508C84.0085 48.7743 84.0136 48.4721 84.0239 48.1443C84.0341 47.8062 84.0444 47.4835 84.0546 47.1762C84.0751 46.8689 84.0905 46.6026 84.1007 46.3772C84.1212 46.1416 84.1366 45.9879 84.1468 45.9162H84.0853L78.9993 54.3213H76.2027V43.3502Z" fill="black"/>
<path d="M34.8455 69.4573C34.8455 69.8349 34.7322 70.1294 34.5056 70.3409C34.2791 70.5524 33.9883 70.6959 33.6333 70.7714V70.8167C34.011 70.8696 34.3395 71.0055 34.6189 71.2245C34.8984 71.436 35.0381 71.7683 35.0381 72.2214C35.0381 72.4782 34.989 72.7161 34.8908 72.9351C34.8002 73.1541 34.6567 73.3429 34.4603 73.5015C34.264 73.6601 34.011 73.7848 33.7013 73.8754C33.3917 73.9585 33.0178 74 32.5798 74H29.9629V67.9279H32.5685C32.9989 67.9279 33.3841 67.977 33.724 68.0752C34.0714 68.1658 34.3433 68.3244 34.5396 68.551C34.7435 68.77 34.8455 69.0721 34.8455 69.4573ZM34.0072 72.2214C34.0072 71.874 33.875 71.6248 33.6107 71.4738C33.3464 71.3227 32.9574 71.2472 32.4439 71.2472H30.9598V73.1957H32.4665C32.965 73.1957 33.3464 73.1239 33.6107 72.9804C33.875 72.8294 34.0072 72.5764 34.0072 72.2214ZM33.8373 69.5819C33.8373 69.2949 33.7315 69.0872 33.5201 68.9588C33.3161 68.8229 32.9801 68.7549 32.5118 68.7549H30.9598V70.4202H32.3306C32.8215 70.4202 33.1953 70.3522 33.4521 70.2163C33.7089 70.0803 33.8373 69.8689 33.8373 69.5819ZM38.9257 74.1133C38.3895 74.1133 37.9099 74.0038 37.487 73.7848C37.0716 73.5657 36.7431 73.2259 36.5014 72.7652C36.2673 72.3045 36.1502 71.7154 36.1502 70.998C36.1502 70.2503 36.2748 69.6423 36.524 69.1741C36.7733 68.7058 37.1094 68.3622 37.5323 68.1432C37.9628 67.9242 38.4499 67.8147 38.9937 67.8147C39.3033 67.8147 39.6016 67.8486 39.8886 67.9166C40.1756 67.977 40.4097 68.0526 40.591 68.1432L40.2851 68.9702C40.1038 68.9022 39.8924 68.838 39.6507 68.7776C39.409 68.7172 39.1825 68.6869 38.971 68.6869C38.5632 68.6869 38.2271 68.7738 37.9628 68.9475C37.6984 69.1212 37.5021 69.378 37.3737 69.7178C37.2453 70.0577 37.1811 70.4806 37.1811 70.9866C37.1811 71.47 37.2453 71.8816 37.3737 72.2214C37.5021 72.5613 37.6947 72.8181 37.9514 72.9918C38.2082 73.1655 38.5292 73.2523 38.9144 73.2523C39.2467 73.2523 39.5374 73.2183 39.7866 73.1504C40.0434 73.0824 40.2775 72.9993 40.489 72.9011V73.7848C40.2851 73.8905 40.0585 73.9698 39.8093 74.0227C39.5676 74.0831 39.2731 74.1133 38.9257 74.1133ZM44.278 67.8147C44.7991 67.8147 45.2447 67.9279 45.6148 68.1545C45.9924 68.3811 46.2794 68.7021 46.4758 69.1174C46.6797 69.5253 46.7816 70.0048 46.7816 70.5561V71.1566H42.6241C42.6392 71.8438 42.8129 72.3687 43.1452 72.7312C43.485 73.0862 43.9571 73.2636 44.5612 73.2636C44.9464 73.2636 45.2863 73.2297 45.5808 73.1617C45.8829 73.0862 46.1925 72.9804 46.5097 72.8445V73.7168C46.2001 73.8527 45.8942 73.9509 45.5921 74.0113C45.29 74.0793 44.9313 74.1133 44.5159 74.1133C43.942 74.1133 43.4322 73.9962 42.9866 73.7621C42.5486 73.528 42.2049 73.1806 41.9557 72.7199C41.714 72.2516 41.5932 71.6814 41.5932 71.0093C41.5932 70.3447 41.7027 69.7745 41.9217 69.2987C42.1483 68.8229 42.4617 68.4566 42.862 68.1998C43.2698 67.943 43.7418 67.8147 44.278 67.8147ZM44.2667 68.6303C43.7909 68.6303 43.4133 68.7851 43.1339 69.0948C42.862 69.3969 42.6996 69.8198 42.6467 70.3636H45.7394C45.7394 70.0162 45.6865 69.7141 45.5808 69.4573C45.4751 69.2005 45.3127 69.0004 45.0937 68.8569C44.8822 68.7058 44.6066 68.6303 44.2667 68.6303ZM53.7058 74.1133C53.1696 74.1133 52.69 74.0038 52.2671 73.7848C51.8517 73.5657 51.5232 73.2259 51.2815 72.7652C51.0474 72.3045 50.9303 71.7154 50.9303 70.998C50.9303 70.2503 51.0549 69.6423 51.3042 69.1741C51.5534 68.7058 51.8895 68.3622 52.3124 68.1432C52.7429 67.9242 53.23 67.8147 53.7738 67.8147C54.0834 67.8147 54.3817 67.8486 54.6687 67.9166C54.9557 67.977 55.1898 68.0526 55.3711 68.1432L55.0652 68.9702C54.884 68.9022 54.6725 68.838 54.4308 68.7776C54.1891 68.7172 53.9626 68.6869 53.7511 68.6869C53.3433 68.6869 53.0072 68.7738 52.7429 68.9475C52.4785 69.1212 52.2822 69.378 52.1538 69.7178C52.0254 70.0577 51.9612 70.4806 51.9612 70.9866C51.9612 71.47 52.0254 71.8816 52.1538 72.2214C52.2822 72.5613 52.4748 72.8181 52.7315 72.9918C52.9883 73.1655 53.3093 73.2523 53.6945 73.2523C54.0268 73.2523 54.3175 73.2183 54.5668 73.1504C54.8235 73.0824 55.0577 72.9993 55.2691 72.9011V73.7848C55.0652 73.8905 54.8386 73.9698 54.5894 74.0227C54.3477 74.0831 54.0532 74.1133 53.7058 74.1133ZM60.9047 68.7662H58.9222V74H57.9366V68.7662H55.9768V67.9279H60.9047V68.7662ZM64.4005 67.826C65.1406 67.826 65.6882 67.9884 66.0431 68.3131C66.3981 68.6379 66.5756 69.1552 66.5756 69.8651V74H65.8505L65.6579 73.139H65.6126C65.4389 73.3581 65.2577 73.5431 65.0689 73.6941C64.8876 73.8376 64.6761 73.9434 64.4345 74.0113C64.2004 74.0793 63.9134 74.1133 63.5735 74.1133C63.211 74.1133 62.8825 74.0491 62.5879 73.9207C62.3009 73.7923 62.0744 73.596 61.9082 73.3316C61.7421 73.0597 61.659 72.7199 61.659 72.3121C61.659 71.7079 61.8969 71.2434 62.3727 70.9187C62.8485 70.5864 63.5811 70.4051 64.5704 70.3749L65.6013 70.3409V69.9784C65.6013 69.4724 65.4918 69.1212 65.2728 68.9248C65.0538 68.7285 64.7441 68.6303 64.3438 68.6303C64.0266 68.6303 63.7246 68.6794 63.4376 68.7776C63.1506 68.8682 62.8825 68.9739 62.6332 69.0948L62.3274 68.3471C62.5917 68.2036 62.9051 68.0828 63.2676 67.9846C63.6302 67.8789 64.0078 67.826 64.4005 67.826ZM64.695 71.0659C63.9398 71.0961 63.4149 71.217 63.1204 71.4284C62.8334 71.6399 62.6899 71.9382 62.6899 72.3234C62.6899 72.6632 62.7918 72.9125 62.9958 73.0711C63.2072 73.2297 63.4753 73.309 63.8001 73.309C64.3136 73.309 64.7403 73.1692 65.0802 72.8898C65.4201 72.6028 65.59 72.1648 65.59 71.5757V71.0319L64.695 71.0659ZM72.6425 68.7662H70.66V74H69.6744V68.7662H67.7146V67.9279H72.6425V68.7662ZM76.6367 70.4202C77.1654 70.4202 77.6034 70.4844 77.9508 70.6128C78.2982 70.7412 78.5588 70.9338 78.7325 71.1905C78.9138 71.4398 79.0044 71.757 79.0044 72.1421C79.0044 72.5197 78.9175 72.8483 78.7438 73.1277C78.5777 73.4071 78.3171 73.6224 77.9622 73.7734C77.6072 73.9245 77.1503 74 76.5914 74H73.8386V67.9279H74.8355V70.4202H76.6367ZM78.0075 72.1988C78.0075 71.8287 77.8753 71.5795 77.611 71.4511C77.3542 71.3152 76.9917 71.2472 76.5234 71.2472H74.8355V73.1957H76.5461C76.969 73.1957 77.3164 73.1202 77.5883 72.9691C77.8678 72.8181 78.0075 72.5613 78.0075 72.1988ZM81.5051 71.6324C81.5051 71.7003 81.5014 71.7985 81.4938 71.9269C81.4938 72.0477 81.49 72.1799 81.4825 72.3234C81.4749 72.4593 81.4674 72.5915 81.4598 72.7199C81.4523 72.8407 81.4447 72.9389 81.4372 73.0144L84.6884 67.9279H85.9119V74H84.983V70.4202C84.983 70.2994 84.983 70.1408 84.983 69.9444C84.9905 69.748 84.9981 69.5555 85.0056 69.3667C85.0132 69.1703 85.0207 69.023 85.0283 68.9248L81.7997 74H80.5649V67.9279H81.5051V71.6324Z" fill="black"/>
<path d="M99.1305 61.021C99.5452 60.6062 99.5452 59.9338 99.1305 59.519L92.3717 52.7602C91.9569 52.3455 91.2845 52.3455 90.8697 52.7602C90.455 53.175 90.455 53.8474 90.8697 54.2622L96.8775 60.27L90.8697 66.2778C90.455 66.6926 90.455 67.365 90.8697 67.7798C91.2845 68.1946 91.9569 68.1946 92.3717 67.7798L99.1305 61.021ZM30.0547 61.3321L98.3795 61.3321V59.208L30.0547 59.208V61.3321Z" fill="white"/>
<defs>
<filter id="filter0_d_121_22" x="0.671532" y="0.79562" width="115.409" height="115.409" filterUnits="userSpaceOnUse" color-interpolation-filters="sRGB">
<feFlood flood-opacity="0" result="BackgroundImageFix"/>
<feColorMatrix in="SourceAlpha" type="matrix" values="0 0 0 0 0 0 0 0 0 0 0 0 0 0 0 0 0 0 127 0" result="hardAlpha"/>
<feOffset dx="-2.12409"/>
<feGaussianBlur stdDeviation="4.60219"/>
<feComposite in2="hardAlpha" operator="out"/>
<feColorMatrix type="matrix" values="0 0 0 0 0 0 0 0 0 0 0 0 0 0 0 0 0 0 0.15 0"/>
<feBlend mode="normal" in2="BackgroundImageFix" result="effect1_dropShadow_121_22"/>
<feBlend mode="normal" in="SourceGraphic" in2="effect1_dropShadow_121_22" result="shape"/>
</filter>
<radialGradient id="paint0_radial_121_22" cx="0" cy="0" r="1" gradientUnits="userSpaceOnUse" gradientTransform="translate(62.9782 58.8539) rotate(90) scale(45.3139)">
<stop stop-color="#449EDB" stop-opacity="0.29"/>
<stop offset="1" stop-color="#1984D6" stop-opacity="0.83"/>
</radialGradient>
</defs>
</svg>
